<?xml version="1.0" standalone="no"?><!DOCTYPE svg PUBLIC "-//W3C//DTD SVG 1.1//EN" "http://www.w3.org/Graphics/SVG/1.1/DTD/svg11.dtd"><svg t="1618570052836" class="icon" viewBox="0 0 1024 1024" version="1.1" xmlns="http://www.w3.org/2000/svg" p-id="5227" xmlns:xlink="http://www.w3.org/1999/xlink" width="128" height="128"><defs><style type="text/css"></style></defs><path d="M505.4 878.6c-196.7 0-358-150.9-374.9-343.1 1-18.6 16.1-33.4 34.9-33.4 10.8 0 20.5 4.8 26.9 12.4 0.2 0.3 0.5 0.1 0.5-0.7 41.6 44.2 100.5 71.9 166.1 71.9 127.1 0 230.1-103 230.1-230.1 0-66.1-28-125.1-72.6-166.8 0.1-0.1 0.5-0.1 0.3-0.3-7-6.5-11.4-15.7-11.4-26.1 0-19 14.9-34.1 33.7-35.3 192.1 17.1 342.9 178.3 342.9 375 0 208-168.5 376.5-376.5 376.5z" p-id="5228"></path></svg>