<?xml version="1.0" standalone="no"?><!DOCTYPE svg PUBLIC "-//W3C//DTD SVG 1.1//EN" "http://www.w3.org/Graphics/SVG/1.1/DTD/svg11.dtd"><svg t="1618739257311" class="icon" viewBox="0 0 1024 1024" version="1.1" xmlns="http://www.w3.org/2000/svg" p-id="11278" xmlns:xlink="http://www.w3.org/1999/xlink" width="200" height="200"><defs><style type="text/css">html, * { user-select: text !important; }
</style></defs><path d="M512 960.16002l-9.515724-3.685949C196.871833 838.349743 161.529907 683.948187 161.529907 578.089208L161.529907 173.769672l27.282367 0.935302c212.432227 7.233752 302.889425-88.641853 303.741839-89.577155l19.472494-21.286816 19.444864 21.286816c0.715291 0.77055 86.441744 89.961918 281.052071 89.961918 0 0 0 0 0.027629 0 7.398504 0 14.96176-0.110517 22.63451-0.384763l27.282367-0.935302L862.468047 578.089208c0 105.85898-35.340903 260.259512-340.953346 378.384863L512 960.16002zM214.281341 227.840148 214.281341 578.089208c0 56.930617 0.027629 207.234855 297.718659 325.4697C809.718659 785.324062 809.718659 635.019825 809.718659 578.089208l0-350.249059c-164.852582-0.632403-259.709997-59.296501-297.718659-89.604784C473.963709 168.516018 379.105271 227.152487 214.281341 227.840148z" p-id="11279"></path><path d="M713.318 368.64a32.222 32.222 0 0 0-45.329 0L449.195 587.435l-93.184-93.116a32.222 32.222 0 0 0-45.33 0 32.222 32.222 0 0 0 0 45.26l115.85 115.85a32.29 32.29 0 0 0 45.328 0L713.32 413.9a32.222 32.222 0 0 0 0-45.33z" p-id="11280"></path></svg>
