<svg viewBox="0 0 1024 1024" xmlns="http://www.w3.org/2000/svg" width="200" height="200"><path d="M942 703.9v-50h-81.8c-4.2-29.6-15.9-56.9-33.1-79.8l57.8-57.8-35.3-35.3-57.8 57.8c-22.9-17.2-50.2-28.8-79.8-33.1v-81.8h-50v81.8c-29.6 4.2-56.9 15.9-79.8 33.1L524.3 481 489 516.3l57.8 57.8c-17.2 22.9-28.8 50.2-33.1 79.8H432v50h81.8c4.2 29.6 15.9 56.9 33.1 79.8L489 841.6l35.4 35.4 57.8-57.8c22.9 17.2 50.2 28.8 79.8 33.1v81.8h50v-81.8c29.6-4.2 56.9-15.9 79.8-33.1l57.8 57.8 35.4-35.4-57.8-57.8c17.2-22.9 28.8-50.2 33.1-79.8H942z m-131.3-7c-2.9 20.6-11.1 40.2-23.6 56.9l-10.8 14.5-14.5 10.8c-16.7 12.5-36.3 20.6-56.9 23.6l-17.9 2.6-17.9-2.6c-20.6-2.9-40.2-11.1-56.9-23.6l-14.5-10.8-10.8-14.5c-12.5-16.7-20.6-36.3-23.6-56.9l-2.6-17.9 2.6-17.9c2.9-20.6 11.1-40.2 23.6-56.9l10.8-14.5 14.5-10.8c16.7-12.5 36.3-20.6 56.9-23.6l17.9-2.6 17.9 2.6c20.6 2.9 40.2 11.1 56.9 23.6l14.5 10.8 10.8 14.5c12.5 16.7 20.6 36.3 23.6 56.9l2.6 17.9-2.6 17.9zM374 848.1h-96.3l-57.1-639.3c-1.4-17.9 4.6-35 16.8-48.2 12.2-13.2 28.9-20.5 46.9-20.5h19c23.4 26.3 37.7 61 37.7 99 0 25.7-6.5 49.9-18 71h414.4l6.5 58h50.3l-6.5-58H926v-57c0-90-73-163-163-163H284.3c-66.5 0-118.8 56.7-113.5 122.9l42.3 473.1H83l-1 54c0 84.6 66.4 153.6 150 157.8v0.2h142v-50z m169-708h220c30.2 0 58.6 11.8 79.9 33.1s33.1 49.7 33.1 79.9v7H389.9c0.7-7 1.1-14 1.1-21 0-36-9.4-69.8-26-99h178zM163.7 816.4c-20.3-20.3-31.5-47.3-31.6-76l0.1-4.4h85.4l9.9 111.3c-24.1-2.7-46.4-13.5-63.8-30.9z" p-id="11590"/></svg>