<?xml version="1.0" standalone="no"?><!DOCTYPE svg PUBLIC "-//W3C//DTD SVG 1.1//EN" "http://www.w3.org/Graphics/SVG/1.1/DTD/svg11.dtd"><svg t="1618991302448" class="icon" viewBox="0 0 1024 1024" version="1.1" xmlns="http://www.w3.org/2000/svg" p-id="9372" xmlns:xlink="http://www.w3.org/1999/xlink" width="200" height="200"><defs><style type="text/css">html, * { user-select: text !important; }
</style></defs><path d="M888 188.4l-2.6-14.3-14.2-3.2c-79.1-18.1-167.1-12.2-254.3 17.1-78.4 26.3-153.2 70.8-218.2 129.4-56 7.3-110.3 30-157.6 65.7-34.6 26.2-63.4 57.9-85.6 94.2-4.4 7.1-4.7 16.2-0.8 23.6 3.9 7.5 11.5 12.4 19.9 12.8 24.8 1.4 50.3 4.1 76.1 8.2-13 32.4-22.3 65.8-27.6 100.1l-1.7 11.1 17 17c-1.5 1.2-3 2.5-4.4 3.9l-1.8 1.8c-8.8 8.8-13.7 20.7-13.7 33.2 0 2.5 0.2 4.9 0.6 7.3-1.6 1.5-3.2 3-4.7 4.5-52.4 52.3-44.5 96.1-36.2 142.4l2.6 14.3 14.2 3.2c19.5 4.5 37.8 8 55.9 8 30.6 0 60.3-10.1 92.8-42.8 0.8-0.8 1.5-1.6 2.3-2.3 2.5 0.4 5.1 0.6 7.7 0.6 12 0 24-4.6 33.2-13.6l1.8-1.8c1.4-1.4 2.7-2.9 3.9-4.5l17.8 17.8 10.8-1.4c35.9-4.8 70.8-13.8 104.6-26.8 4.4 26.7 7.3 53.4 8.7 79.7 0.5 8.4 5.4 16.1 12.8 20 3.4 1.8 7.3 2.7 11.1 2.7 4.3 0 8.7-1.2 12.5-3.4 36.4-22.2 68-51 94.2-85.6 35.6-47.1 58.2-101.3 65.6-157 59.4-64 105.2-138.2 133-216.1 29.8-83.5 38.2-168.4 24.3-245.8zM212.2 472.5c15.8-20.3 34.3-38.4 55.3-54.3 22.5-17 46.8-30.6 72.1-40.5-28.1 32.8-51.4 67.1-69.9 102.8-19.3-3.4-38.6-6.1-57.5-8zM219 821c-5.8-36.6-4.4-57.4 24.7-87.3l65 65c-31 29-55.2 29.4-89.7 22.3z m138.5-43.4l-1.8 1.8c-1.1 1.1-3.1 1.1-4.2 0L263.2 691c-0.7-0.7-0.8-1.5-0.8-2.1s0.1-1.4 0.8-2.1l1.8-1.8c0.7-0.7 1.5-0.8 2.1-0.8 0.6 0 1.4 0.1 2.1 0.8l88.3 88.4c1.1 1.1 1.1 3.1 0 4.2z m272.5 3.1c-15.8 21-34 39.5-54.2 55.3-2-20.2-4.8-40.4-8.4-60.5 36-18 70.6-40.8 103.7-68.5-9.9 25.9-23.7 50.7-41.1 73.7z m192.2-361.3C794 498.5 745.7 573.7 682.4 637 605.3 714.1 519.1 760.6 426 775.5L268.5 618c7.6-41.3 21.4-81.3 41.2-119.2 23.1-44 54.9-86.5 94.6-126.2 65.8-65.8 144.1-115.2 226.6-142.9 74.2-24.9 148.5-31.4 216-18.9 9.1 65.9 0.6 137.7-24.7 208.6z" p-id="9373"></path><path d="M608.7 339.9c-55 0-99.7 44.7-99.7 99.7s44.7 99.7 99.7 99.7 99.7-44.7 99.7-99.7-44.7-99.7-99.7-99.7z m0 155.3c-30.7 0-55.7-25-55.7-55.7s25-55.7 55.7-55.7 55.7 25 55.7 55.7-25 55.7-55.7 55.7z" p-id="9374"></path></svg>