<?xml version="1.0" standalone="no"?><!DOCTYPE svg PUBLIC "-//W3C//DTD SVG 1.1//EN" "http://www.w3.org/Graphics/SVG/1.1/DTD/svg11.dtd"><svg t="1618991739392" class="icon" viewBox="0 0 1024 1024" version="1.1" xmlns="http://www.w3.org/2000/svg" p-id="20938" xmlns:xlink="http://www.w3.org/1999/xlink" width="200" height="200"><defs><style type="text/css">html, * { user-select: text !important; }
</style></defs><path d="M697.9 459.8m-98.9 0a98.9 98.9 0 1 0 197.8 0 98.9 98.9 0 1 0-197.8 0Z" p-id="20939"></path><path d="M418.1 429.4h-57.2c-2.6 0-4.7-2.1-4.7-4.7v-58.1c0-2.6-2.1-4.7-4.7-4.7H299c-2.6 0-4.7 2.1-4.7 4.7v58.1c0 2.6-2.1 4.7-4.7 4.7h-58.1c-2.6 0-4.7 2.1-4.7 4.7v51.6c0 2.6 2.1 4.7 4.7 4.7h58.1c2.6 0 4.7 2.1 4.7 4.7v58.1c0 2.6 2.1 4.7 4.7 4.7h52.5c2.6 0 4.7-2.1 4.7-4.7V496c0-2.6 2.1-4.7 4.7-4.7h57.2c2.6 0 4.7-2.1 4.7-4.7v-52.5c0-2.6-2.1-4.7-4.7-4.7z" p-id="20940"></path><path d="M174.3 797.7c-4.6 0-9.3-0.3-13.9-0.9-19.2-2.5-37.6-10.1-53.2-22s-27.8-27.7-35.3-45.6c-8-19.1-10.3-40.1-6.8-61l41.6-248.5c8.9-53.3 36.6-101.9 77.8-136.8 41.2-34.9 93.7-54.1 147.8-54.1h356.4c54 0 106.5 19.2 147.8 54.1 41.2 34.9 68.9 83.5 77.8 136.8l41.6 248.5c3.5 20.9 1.1 42-6.8 61-7.5 17.9-19.7 33.6-35.3 45.6-15.6 11.9-34 19.5-53.2 22-20.5 2.7-41.4-0.6-60.6-9.5l-1.5-0.7-163.1-109.3c-75.9-51-174-51-250 0L222.5 786.6l-1.5 0.7c-14.8 6.8-30.8 10.4-46.7 10.4z m157.9-526.9c-91.6 0-169 65.5-184.1 155.9l-41.6 248.5c-4.3 25.7 5.5 50.4 26.2 66.2 20.3 15.5 46.1 18.6 69.4 8.4l160-107.4c44-29.6 95.3-45.2 148.4-45.2s104.3 15.6 148.4 45.2l160 107.4c23.3 10.2 49.1 7 69.4-8.4 20.7-15.8 30.5-40.6 26.2-66.2l-41.6-248.5c-15.1-90.3-92.6-155.9-184.1-155.9H332.2z"  p-id="20941"></path></svg>
