<svg xmlns="http://www.w3.org/2000/svg" xmlns:xlink="http://www.w3.org/1999/xlink" width="160.98" height="160.98" fill="none" viewBox="0 0 160.98 160.98"><g opacity="1" transform="translate(0 0) rotate(0)"><mask id="bg-mask-0" fill="#fff"><use transform="translate(0 0) rotate(0)" xlink:href="#path_0"/></mask><g mask="url(#bg-mask-0)"><g id="路径 1" filter="url(#filter_1)"><path id="路径 1" fill="url(#linear_0)" fill-rule="evenodd" d="M50.6804,127.618zM97.6904,145.778h-8.22c-2.04,-0.12 -3.81,-1.48 -4.45,-3.42c-1.17,-4.2 -2.31,-8.42 -3.55,-12.59c-0.2,-0.52 -0.62,-0.93 -1.15,-1.12c-4.24,-1.4 -8.31,-3.26 -12.15,-5.54c-0.78,-0.4 -1.51,-0.85 -2.21,-1.36c-0.28,-0.27 -0.66,-0.41 -1.04,-0.39c-0.39,0.02 -0.74,0.2 -0.99,0.5c-2.52,1.99 -5.1,3.91 -7.55,5.99c-1.63,1.51 -4.19,1.41 -5.7,-0.23c-2.22,-2.17 -4.31,-4.49 -6.45,-6.76c-2.72,-2.88 -5.44,-5.75 -8.12,-8.65c-1.56,-1.65 -1.74,-4.16 -0.44,-6.02c2,-2.79 3.8,-5.72 5.72,-8.5703c0.32,-0.41 0.32,-0.99 0,-1.4c-2.87,-4.77 -5.14,-9.87 -6.74,-15.2c-0.15,-0.37 -0.44,-0.67 -0.81,-0.81c-3.58,-1.03 -7.16,-2.03 -10.75,-2.99c-2.07,-0.48 -3.54,-2.33 -3.53,-4.45v-16.45c-0.11,-0.9 0.19,-1.81 0.81,-2.46c0.63,-0.66 1.52,-1 2.42,-0.93c3.22,-0.15 6.5,-0.24 9.76,-0.33c0.61,0.08 1.17,-0.36 1.26,-0.97v-0.01c1,-3.69 2.59,-7.2 4.71,-10.39c0.43,-0.5 0.4,-1.24 -0.06,-1.71c-1.9,-2.54 -3.76,-5.12 -5.65,-7.7c-0.45,-0.54 -0.67,-1.24 -0.61,-1.94c0.06,-0.7 0.4,-1.35 0.94,-1.81c0.09,-0.08 0.19,-0.15 0.3,-0.22c3.28,-2.3 6.62,-4.55 9.86,-6.92c1.39,-0.95 3.22,-0.92 4.58,0.07c2.42,1.85 4.93,3.62 7.33,5.51c0.6,0.55 1.45,0.7 2.21,0.4c3.24,-1.06 6.61,-1.68 10.02,-1.85c0.53,0 0.76,-0.2 0.81,-0.72c0.06,-0.7 0.21,-1.4 0.27,-2.1c0.15,-1.57 0.24,-3.14 0.4,-4.72c0.05,-0.45 0.28,-0.86 0.63,-1.14c0.36,-0.29 0.81,-0.42 1.26,-0.37c0.05,0 0.09,0.01 0.14,0.02c1.43,0.18 2.86,0.43 4.26,0.76c3.02,0.62 6.04,1.27 9.06,1.89c1.96,0.32 3.55,1.75 4.08,3.66c0.68,2.07 1.4,4.14 2.24,6.15c0.32,0.57 0.8,1.03 1.39,1.33c0.8,0.46 1.7,0.75 2.54,1.15c0.2,0.13 0.38,0.29 0.54,0.48c-0.23,0.06 -0.47,0.08 -0.7,0.07c-3.16,-0.84 -6.42,-1.23 -9.68,-1.16c-6.93,0.17 -13.34,2.01 -18.8,6.46c-3.9,3.24 -6.86,7.49 -8.54,12.28c-2.2,5.97 -2.35,12.1 -1.61,18.29c0.63,4.98 2.1,9.82 4.36,14.31c1.25,2.54 2.76,4.94 4.14,7.41c0.36,0.65 0.63,0.74 1.16,0.1c0.97,-1.16 2.02,-2.25 3.05,-3.36c0.51,-0.5 0.77,-1.2 0.72,-1.91c-0.24,-4.95 -0.26,-9.93 -0.76,-14.86c-0.21,-1.57 0.36,-3.15 1.52,-4.22c3.32,-3.6 6.58,-7.26 9.84,-10.88c0.51,-0.61 1.28,-0.96 2.07,-0.95c4.19,-0.15 8.37,-0.4 12.56,-0.57c1.24,-0.06 1.81,0.27 1.98,1.36c0.08,0.68 -0.11,1.36 -0.52,1.9c-3.23,3.62 -6.46,7.18 -9.68,10.74c-0.44,0.35 -0.55,0.96 -0.27,1.44c1.18,2.57 2.28,5.16 3.45,7.74c0.15,0.3 0.4,0.54 0.71,0.67c2.73,0.96 5.48,1.87 8.21,2.8c0.61,0.21 0.96,-0.08 1.32,-0.5c3.0796,-3.42 6.1696,-6.83 9.2596,-10.22c0.24,-0.26 0.44,-0.64 0.74,-0.75c0.58,-0.27 1.22,-0.4 1.86,-0.37c0.81,0.16 1.36,0.91 1.28,1.73c0.13,2.61 0.25,5.21 0.39,7.82c0.1,1.7 0.27,3.4 0.31,5.1c0,0.53 -0.18,1.05 -0.51,1.47c-3.76,4.22 -7.56,8.4 -11.4,12.57c-0.28,0.25 -0.61,0.43 -0.98,0.51c-0.41,0.09 -0.8196,0.14 -1.2396,0.14c-5.25,0.26 -10.49,0.51 -15.73,0.81c-0.44,0.03 -0.85,0.22 -1.15,0.53c-1.46,1.53 -2.87,3.1203 -4.31,4.6803c-0.57,0.6 -0.45,1 0.19,1.47c4.47,3.39 9.44,6.06 14.74,7.9c4.36,1.52 8.9396,2.28 13.5496,2.25c6.66,0.13 13.16,-2 18.45,-6.05c4.01,-3.17 7.08,-7.37 8.88,-12.1503c0.19,-0.48 0.45,-0.93 0.68,-1.39c0.1,0.53 0.13,1.08 0.1,1.62c-0.37,2.31 -0.8,4.6003 -1.19,6.9203c-0.05,0.4 0.06,0.8 0.3,1.12c2.06,2.72 4.13,5.43 6.24,8.07c1.56,1.98 2.04,3.94 0.65,6.28c-2.13,3.55 -4.08,7.21 -6.16,10.79c-1.01,1.75 -2.56,2.04 -4.23,0.81c-2.2,-1.62 -4.38,-3.27 -6.54,-4.95c-2.59,-2.01 -2.55,-2.01 -5.2,-0.13c-2.64,1.84 -5.55,3.26 -8.62,4.21c-0.3,0.05 -0.58,0.21 -0.76,0.46c-0.18,0.24 -0.26,0.55 -0.21,0.85c0,0.02 0,0.04 0.01,0.06c0.11,3.77 0.1,7.55 0.3,11.3c0.07,0.91 -0.23,1.82 -0.83,2.52c-0.6,0.7 -1.45,1.13 -2.37,1.2c-0.15,0.01 -0.31,0.01 -0.47,0c-2.63,-0.13 -5.29,-0.01 -7.9296,-0.01z" opacity="1"/></g><g id="路径 2" filter="url(#filter_2)"><path id="路径 2" fill="url(#linear_1)" fill-rule="evenodd" d="M79.277 33.222C76.037 33.742 72.927 34.912 70.137 36.652C66.867 38.632 64.107 41.362 62.107 44.632C59.817 48.352 58.397 52.542 57.947 56.892C57.777 58.432 57.777 59.992 57.717 61.552C57.747 61.722 57.807 61.882 57.907 62.032C57.947 61.892 58.067 61.762 58.067 61.622C58.497 59.922 59.017 58.262 59.637 56.622C61.387 52.202 64.577 48.492 68.687 46.102C75.247 42.252 82.307 41.822 89.587 43.582C94.077 44.722 98.347 46.572 102.237 49.072C106.497 51.822 110.317 55.202 113.567 59.102C117.097 63.232 119.907 67.952 121.847 73.032C123.127 76.242 123.987 79.602 124.397 83.022C124.797 86.202 124.717 89.412 124.167 92.562C123.617 95.942 122.397 99.182 120.567 102.072C118.187 105.912 114.627 108.882 110.417 110.522C108.857 111.142 107.247 111.602 105.667 112.142C105.537 112.192 105.407 112.272 105.297 112.362L105.677 112.362C109.047 112.392 112.397 111.922 115.617 110.972C120.527 109.582 124.877 106.682 128.047 102.682C131.057 98.822 133.037 94.262 133.797 89.432C134.537 84.962 134.467 80.392 133.617 75.932C133.057 73.252 132.307 70.612 131.367 68.042C129.467 62.712 126.717 57.722 123.227 53.272C120.627 49.852 117.647 46.752 114.327 44.032C110.087 40.472 105.317 37.612 100.187 35.562C95.517 33.652 90.537 32.592 85.487 32.442C83.417 32.702 81.337 32.892 79.277 33.222Z" opacity="1"/></g></g></g><defs><rect id="path_0" width="160.98" height="160.98" x="0" y="0"/><linearGradient id="linear_0" x1="50%" x2="51%" y1="0%" y2="100%" gradientUnits="objectBoundingBox"><stop offset="0" stop-color="#00BAAD" stop-opacity="1"/><stop offset=".479" stop-color="#2A82E4" stop-opacity="1"/><stop offset="1" stop-color="#7948EA" stop-opacity="1"/></linearGradient><filter id="filter_1" width="129.981" height="141.797" x="15.54" y="9.998" color-interpolation-filters="sRGB" filterUnits="userSpaceOnUse"><feFlood flood-opacity="0" result="feFloodId"/><feColorMatrix in="SourceAlpha" result="hardAlpha" type="matrix" values="0 0 0 0 0 0 0 0 0 0 0 0 0 0 0 0 0 0 127 0"/><feOffset dx="0" dy="2"/><feComposite in2="hardAlpha" operator="out"/><feGaussianBlur stdDeviation="2"/><feColorMatrix type="matrix" values="0 0 0 0 0 0 0 0 0 0 0 0 0 0 0 0 0 0 0.2 0"/><feBlend in2="filter_feFlood" mode="normal" result="filter_feFlood_1"/><feBlend in="SourceGraphic" in2="filter_1" mode="normal" result="shape"/></filter><radialGradient id="linear_1" cx="50%" cy="50%" r=".5" fx="50%" fy="50%" gradientTransform="translate(0.5 0.5) scale(1.043567864107049 1) rotate(90) scale(1 0.9582510485369068) translate(-0.5 -0.5)"><stop offset="0" stop-color="#FFC300" stop-opacity="1"/><stop offset="1" stop-color="#FF8D1A" stop-opacity="1"/></radialGradient><filter id="filter_2" width="84.589" height="91.926" x="53.717" y="26.442" color-interpolation-filters="sRGB" filterUnits="userSpaceOnUse"><feFlood flood-opacity="0" result="feFloodId"/><feColorMatrix in="SourceAlpha" result="hardAlpha" type="matrix" values="0 0 0 0 0 0 0 0 0 0 0 0 0 0 0 0 0 0 127 0"/><feOffset dx="0" dy="2"/><feComposite in2="hardAlpha" operator="out"/><feGaussianBlur stdDeviation="2"/><feColorMatrix type="matrix" values="0 0 0 0 0 0 0 0 0 0 0 0 0 0 0 0 0 0 0.2 0"/><feBlend in2="filter_feFlood" mode="normal" result="filter_feFlood_1"/><feBlend in="SourceGraphic" in2="filter_2" mode="normal" result="shape"/></filter></defs></svg>