<svg xmlns="http://www.w3.org/2000/svg" xmlns:xlink="http://www.w3.org/1999/xlink" width="1024" height="1024" fill="none" viewBox="0 0 1024 1024"><g opacity="1" transform="translate(0 0) rotate(0)"><mask id="bg-mask-0" fill="#fff"><use transform="translate(0 0) rotate(0)" xlink:href="#path_0"/></mask><g mask="url(#bg-mask-0)"><g id="路径 1" filter="url(#filter_1)"><path id="路径 1" fill="url(#linear_0)" fill-rule="evenodd" d="M322.387,811.802zM621.407,927.272h-52.29c-13,-0.76 -24.21,-9.39 -28.28,-21.75c-7.43,-26.72 -14.72,-53.52 -22.57,-80.09c-1.31,-3.31 -3.99,-5.89 -7.34,-7.08c-26.96,-8.94 -52.89,-20.76 -77.32,-35.26c-4.91,-2.51 -9.61,-5.41 -14.06,-8.67c-1.76,-1.69 -4.15,-2.58 -6.6,-2.44c-2.44,0.14 -4.71,1.28 -6.28,3.16c-16.05,12.67 -32.47,24.89 -48.02,38.07c-10.4,9.62 -26.63,8.99 -36.26,-1.41c-14.16,-13.85 -27.44,-28.57 -41.04,-43.05c-17.29,-18.26 -34.58,-36.53 -51.67,-55c-9.91,-10.47 -11.07,-26.48 -2.77,-38.27c12.72,-17.76 24.17,-36.38 36.38,-54.54c2.04,-2.62 2.04,-6.29 0,-8.91c-18.26,-30.32 -32.67,-62.8 -42.9,-96.69c-0.9,-2.36 -2.77,-4.23 -5.13,-5.13c-22.75,-6.56 -45.54,-12.91 -68.39,-19.03c-13.19,-3.03 -22.5,-14.8 -22.43,-28.33v-104.64c-0.7,-5.72 1.2,-11.45 5.17,-15.63c3.97,-4.17 9.61,-6.34 15.35,-5.92c20.53,-0.92 41.35,-1.54 62.09,-2.1c3.9,0.5 7.48,-2.25 7.99,-6.15v-0.06c6.4,-23.5 16.54,-45.81 30.02,-66.09c2.7,-3.18 2.53,-7.9 -0.41,-10.87c-12.09,-16.17 -23.91,-32.59 -35.92,-48.98c-2.89,-3.44 -4.3,-7.88 -3.91,-12.36c0.38,-4.47 2.53,-8.61 5.96,-11.5c0.61,-0.51 1.24,-0.97 1.91,-1.39c20.88,-14.68 42.12,-28.99 62.75,-44.07c8.84,-6 20.5,-5.82 29.14,0.46c15.4,11.8 31.35,23.04 46.59,35.09c3.82,3.45 9.27,4.44 14.06,2.55c20.63,-6.77 42.08,-10.73 63.77,-11.8c3.34,0 4.83,-1.28 5.14,-4.57c0.4,-4.45 1.33,-8.91 1.74,-13.36c0.92,-10 1.54,-20 2.54,-30.01c0.32,-2.87 1.76,-5.49 4.01,-7.3c2.25,-1.8 5.13,-2.64 8,-2.32c0.29,0.03 0.58,0.07 0.88,0.13c9.12,1.14 18.18,2.75 27.14,4.82c19.19,3.95 38.37,8.05 57.62,12.05c12.44,2.04 22.56,11.11 25.96,23.25c4.31,13.18 8.9,26.32 14.21,39.15c2.06,3.61 5.12,6.53 8.83,8.41c5.13,2.98 10.81,4.83 16.16,7.34c1.28,0.84 2.44,1.86 3.43,3.03c-1.44,0.4 -2.95,0.55 -4.45,0.46c-20.08,-5.32 -40.81,-7.79 -61.57,-7.34c-44.07,1.03 -84.87,12.77 -119.55,41.05c-24.85,20.65 -43.63,47.65 -54.33,78.14c-14,37.97 -14.99,76.97 -10.27,116.32c4.01,31.71 13.39,62.5 27.74,91.06c7.95,16.11 17.55,31.41 26.32,47.1c2.31,4.16 4,4.72 7.39,0.64c6.16,-7.39 12.88,-14.32 19.44,-21.35c3.22,-3.2 4.88,-7.63 4.57,-12.15c-1.54,-31.51 -1.64,-63.17 -4.82,-94.57c-1.37,-9.98 2.23,-20.01 9.65,-26.83c21.09,-22.9 41.86,-46.18 62.59,-69.17c3.27,-3.89 8.11,-6.11 13.19,-6.05c26.63,-0.98 53.21,-2.54 79.84,-3.64c7.9,-0.36 11.54,1.69 12.62,8.67c0.51,4.31 -0.69,8.65 -3.34,12.09c-20.52,23.03 -41.04,45.65 -61.57,68.28c-2.76,2.22 -3.49,6.13 -1.69,9.19c7.49,16.31 14.52,32.84 21.96,49.21c0.94,1.92 2.54,3.45 4.51,4.3c17.35,6.06 34.84,11.85 52.24,17.81c3.85,1.34 6.05,-0.56 8.36,-3.18c19.6,-21.75 39.24,-43.44 58.9,-65.06c1.54,-1.64 2.82,-4.05 4.72,-4.72c3.7,-1.75 7.77,-2.57 11.86,-2.41c5.11,1.08 8.6,5.83 8.1,11.03c0.87,16.58 1.59,33.15 2.51,49.72c0.64,10.81 1.7,21.63 1.96,32.48c0.03,3.39 -1.12,6.69 -3.24,9.34c-23.94,26.81 -48.12,53.46 -72.55,79.94c-1.73,1.63 -3.88,2.77 -6.21,3.28c-2.59,0.58 -5.24,0.87 -7.9,0.87c-33.35,1.64 -66.7,3.24 -100.05,5.13c-2.77,0.23 -5.37,1.43 -7.34,3.39c-9.28,9.75 -18.21,19.86 -27.39,29.76c-3.6,3.85 -2.88,6.36 1.22,9.39c28.42,21.57 60.05,38.53 93.75,50.25c27.71,9.62 56.86,14.46 86.2,14.32c42.35,0.8 83.73,-12.77 117.39,-38.48c25.49,-20.17 45,-46.9 56.44,-77.32c1.23,-3.08 2.87,-5.91 4.36,-8.83c0.6,3.38 0.81,6.83 0.63,10.26c-2.36,14.73 -5.13,29.3 -7.59,44.02c-0.29,2.55 0.4,5.11 1.91,7.18c13.08,17.3 26.26,34.54 39.71,51.32c9.9,12.57 12.98,25.04 4.1,39.91c-13.54,22.58 -25.96,45.87 -39.14,68.65c-6.47,11.14 -16.32,12.99 -26.94,5.14c-14,-10.26 -27.87,-20.75 -41.62,-31.46c-16.41,-12.77 -16.2,-12.77 -33.04,-0.82c-16.81,11.67 -35.31,20.71 -54.85,26.79c-1.92,0.28 -3.65,1.32 -4.81,2.89c-1.16,1.56 -1.65,3.52 -1.36,5.45c0,0.12 0.04,0.25 0.07,0.38c0.71,23.96 0.63,47.97 1.9,71.83c0.45,5.84 -1.44,11.61 -5.25,16.05c-3.81,4.44 -9.23,7.18 -15.06,7.63c-1.01,0.07 -2.02,0.07 -3.03,0c-16.73,-0.8 -33.62,-0.08 -50.44,-0.08z" opacity="1"/></g><g id="路径 2" filter="url(#filter_2)"><path id="路径 2" fill="url(#linear_1)" fill-rule="evenodd" d="M504.31 211.305C483.67 214.665 463.9 222.085 446.14 233.125C425.31 245.725 407.81 263.125 395.08 283.885C380.52 307.575 371.46 334.245 368.58 361.915C367.5 371.685 367.5 381.625 367.14 391.505C367.31 392.615 367.71 393.665 368.32 394.595C368.63 393.715 369.35 392.845 369.35 391.965C372.11 381.195 375.44 370.575 379.33 360.165C390.49 332.035 410.78 308.465 436.93 293.245C478.67 268.795 523.55 266.015 569.88 277.235C598.4 284.465 625.56 296.255 650.31 312.155C677.44 329.625 701.74 351.125 722.38 375.935C744.88 402.255 762.7 432.225 775.09 464.565C783.22 484.965 788.67 506.335 791.29 528.135C793.83 548.305 793.33 568.745 789.81 588.765C786.35 610.285 778.56 630.885 766.91 649.295C751.77 673.725 729.12 692.575 702.36 703.035C692.42 706.995 682.18 709.935 672.15 713.325C671.3 713.685 670.52 714.175 669.83 714.775L672.25 714.775C693.64 714.945 714.94 711.965 735.46 705.915C766.69 697.045 794.34 678.595 814.52 653.155C833.64 628.615 846.23 599.625 851.11 568.895C855.77 540.425 855.37 511.355 849.93 483.025C846.41 465.965 841.62 449.185 835.62 432.835C823.55 398.915 806.06 367.175 783.84 338.855C767.33 317.105 748.33 297.375 727.23 280.075C700.3 257.455 669.94 239.265 637.31 226.175C607.57 214.045 575.9 207.335 543.8 206.365C530.64 208.015 517.36 209.245 504.31 211.305Z" opacity="1"/></g></g></g><defs><rect id="path_0" width="1024" height="1024" x="0" y="0"/><linearGradient id="linear_0" x1="50%" x2="51%" y1="0%" y2="100%" gradientUnits="objectBoundingBox"><stop offset="0" stop-color="#00BAAD" stop-opacity="1"/><stop offset=".479" stop-color="#2A82E4" stop-opacity="1"/><stop offset="1" stop-color="#7948EA" stop-opacity="1"/></linearGradient><filter id="filter_1" width="783.928" height="837.643" x="120.297" y="95.762" color-interpolation-filters="sRGB" filterUnits="userSpaceOnUse"><feFlood flood-opacity="0" result="feFloodId"/><feColorMatrix in="SourceAlpha" result="hardAlpha" type="matrix" values="0 0 0 0 0 0 0 0 0 0 0 0 0 0 0 0 0 0 127 0"/><feOffset dx="0" dy="2"/><feComposite in2="hardAlpha" operator="out"/><feGaussianBlur stdDeviation="2"/><feColorMatrix type="matrix" values="0 0 0 0 0 0 0 0 0 0 0 0 0 0 0 0 0 0 0.2 0"/><feBlend in2="filter_feFlood" mode="normal" result="filter_feFlood_1"/><feBlend in="SourceGraphic" in2="filter_1" mode="normal" result="shape"/></filter><radialGradient id="linear_1" cx="50%" cy="50%" r=".5" fx="50%" fy="50%" gradientTransform="translate(0.5 0.5) scale(1.0435676447860873 1) rotate(90) scale(1 0.9582510485369068) translate(-0.5 -0.5)"><stop offset="0" stop-color="#FFC300" stop-opacity="1"/><stop offset="1" stop-color="#FF8D1A" stop-opacity="1"/></radialGradient><filter id="filter_2" width="495.188" height="520.413" x="363.14" y="200.365" color-interpolation-filters="sRGB" filterUnits="userSpaceOnUse"><feFlood flood-opacity="0" result="feFloodId"/><feColorMatrix in="SourceAlpha" result="hardAlpha" type="matrix" values="0 0 0 0 0 0 0 0 0 0 0 0 0 0 0 0 0 0 127 0"/><feOffset dx="0" dy="2"/><feComposite in2="hardAlpha" operator="out"/><feGaussianBlur stdDeviation="2"/><feColorMatrix type="matrix" values="0 0 0 0 0 0 0 0 0 0 0 0 0 0 0 0 0 0 0.2 0"/><feBlend in2="filter_feFlood" mode="normal" result="filter_feFlood_1"/><feBlend in="SourceGraphic" in2="filter_2" mode="normal" result="shape"/></filter></defs></svg>