<svg xmlns="http://www.w3.org/2000/svg" xmlns:xlink="http://www.w3.org/1999/xlink" width="512" height="512" fill="none" viewBox="0 0 512 512"><g opacity="1" transform="translate(0 0) rotate(0)"><mask id="bg-mask-0" fill="#fff"><use transform="translate(0 0) rotate(0)" xlink:href="#path_0"/></mask><g mask="url(#bg-mask-0)"><g id="路径 1" filter="url(#filter_1)"><path id="路径 1" fill="url(#linear_0)" fill-rule="evenodd" d="M161.199,405.901zM310.699,463.641h-26.14c-6.5,-0.39 -12.1,-4.7 -14.14,-10.88c-3.72,-13.36 -7.36,-26.76 -11.29,-40.05c-0.65,-1.65 -1.99,-2.94 -3.66,-3.54c-13.49,-4.47 -26.45,-10.38 -38.67,-17.62c-2.45,-1.26 -4.8,-2.71 -7.02,-4.34c-0.89,-0.85 -2.08,-1.29 -3.3,-1.22c-1.22,0.07 -2.36,0.64 -3.14,1.58c-8.03,6.34 -16.24,12.44 -24.01,19.04c-5.21,4.81 -13.32,4.49 -18.13,-0.71c-7.08,-6.93 -13.73,-14.29 -20.53,-21.52c-8.64,-9.14 -17.29,-18.27 -25.83,-27.5c-4.95,-5.24 -5.53,-13.24 -1.39,-19.14c6.36,-8.88 12.09,-18.19 18.19,-27.27c1.02,-1.31 1.02,-3.15 0,-4.45c-9.12,-15.17 -16.33,-31.41 -21.44,-48.35c-0.46,-1.18 -1.39,-2.11 -2.57,-2.56c-11.3704,-3.29 -22.7704,-6.46 -34.2004,-9.52c-6.59,-1.52 -11.25,-7.4 -11.21,-14.16v-52.33c-0.35,-2.86 0.6,-5.72 2.59,-7.81c1.98,-2.08 4.8,-3.17 7.67,-2.96c10.26,-0.46 20.68,-0.77 31.0404,-1.05c1.96,0.25 3.74,-1.12 4,-3.07v-0.04c3.2,-11.74 8.27,-22.9 15.01,-33.04c1.35,-1.59 1.26,-3.95 -0.21,-5.44c-6.04,-8.08 -11.95,-16.29 -17.95,-24.49c-1.45,-1.71 -2.15,-3.94 -1.96,-6.17c0.19,-2.24 1.26,-4.31 2.98,-5.76c0.3,-0.25 0.62,-0.48 0.96,-0.69c10.44,-7.34 21.06,-14.49 31.37,-22.04c4.42,-3 10.25,-2.91 14.57,0.23c7.7,5.9 15.67,11.52 23.3,17.55c1.91,1.73 4.63,2.22 7.02,1.27c10.32,-3.38 21.05,-5.36 31.89,-5.9c1.67,0 2.41,-0.63 2.57,-2.28c0.2,-2.23 0.67,-4.45 0.87,-6.68c0.46,-5 0.77,-10 1.27,-15.01c0.16,-1.43 0.88,-2.74 2.01,-3.64c1.12,-0.91 2.56,-1.33 3.99,-1.17c0.15,0.02 0.3,0.04 0.44,0.07c4.56,0.57 9.09,1.38 13.57,2.41c9.6,1.98 19.19,4.03 28.81,6.03c6.22,1.02 11.29,5.55 12.98,11.62c2.16,6.59 4.46,13.16 7.11,19.58c1.03,1.8 2.56,3.26 4.41,4.2c2.57,1.49 5.41,2.41 8.08,3.67c0.65,0.42 1.23,0.93 1.72,1.51c-0.72,0.21 -1.47,0.28 -2.22,0.23c-10.04,-2.66 -20.41,-3.89 -30.79,-3.66c-22.04,0.51 -42.43,6.38 -59.78,20.52c-12.42,10.32 -21.81,23.83 -27.16,39.07c-7,18.98 -7.49,38.48 -5.13,58.16c2,15.85 6.69,31.25 13.87,45.53c3.97,8.06 8.77,15.7 13.16,23.55c1.15,2.08 2,2.36 3.69,0.32c3.08,-3.7 6.44,-7.16 9.72,-10.67c1.61,-1.6 2.44,-3.82 2.29,-6.08c-0.77,-15.75 -0.82,-31.58 -2.42,-47.28c-0.68,-5 1.12,-10.01 4.83,-13.42c10.54,-11.45 20.93,-23.09 31.3,-34.58c1.63,-1.95 4.05,-3.06 6.59,-3.03c13.31,-0.49 26.6,-1.27 39.92,-1.82c3.95,-0.18 5.77,0.85 6.31,4.33c0.25,2.16 -0.35,4.33 -1.67,6.05c-10.26,11.51 -20.52,22.83 -30.78,34.14c-1.39,1.11 -1.75,3.06 -0.85,4.59c3.74,8.16 7.26,16.42 10.98,24.61c0.47,0.96 1.27,1.73 2.26,2.15c8.67,3.03 17.42,5.93 26.11,8.91c1.93,0.66 3.03,-0.29 4.18,-1.59c9.81,-10.88 19.62,-21.72 29.45,-32.53c0.77,-0.82 1.42,-2.03 2.36,-2.36c1.85,-0.88 3.89,-1.29 5.93,-1.21c2.56,0.54 4.31,2.91 4.06,5.52c0.43,8.28 0.79,16.57 1.25,24.85c0.32,5.41 0.85,10.82 0.98,16.24c0.01,1.7 -0.56,3.35 -1.62,4.67c-11.97,13.41 -24.06,26.74 -36.27,39.97c-0.87,0.82 -1.94,1.39 -3.11,1.64c-1.3,0.29 -2.62,0.44 -3.95,0.44c-16.67,0.82 -33.35,1.62 -50.03,2.57c-1.38,0.11 -2.68,0.71 -3.66,1.69c-4.65,4.87 -9.11,9.93 -13.7,14.88c-1.8,1.92 -1.44,3.18 0.61,4.69c14.21,10.79 30.03,19.27 46.87,25.13c13.86,4.81 28.43,7.23 43.1,7.16c21.18,0.4 41.87,-6.38 58.7,-19.24c12.74,-10.09 22.5,-23.45 28.22,-38.66c0.61,-1.54 1.43,-2.95 2.18,-4.42c0.3,1.7 0.41,3.42 0.32,5.14c-1.18,7.36 -2.57,14.64 -3.8,22.01c-0.14,1.27 0.2,2.55 0.95,3.59c6.55,8.64 13.14,17.26 19.86,25.65c4.95,6.29 6.49,12.52 2.05,19.96c-6.77,11.29 -12.98,22.94 -19.57,34.33c-3.24,5.57 -8.16,6.49 -13.47,2.56c-7,-5.13 -13.93,-10.37 -20.81,-15.72c-8.21,-6.39 -8.1,-6.39 -16.52,-0.41c-8.4,5.83 -17.65,10.35 -27.42,13.39c-0.97,0.14 -1.83,0.66 -2.41,1.44c-0.58,0.79 -0.82,1.77 -0.68,2.73c0,0.06 0.02,0.13 0.03,0.19c0.36,11.98 0.32,23.99 0.96,35.92c0.22,2.91 -0.73,5.8 -2.63,8.02c-1.91,2.22 -4.61,3.59 -7.53,3.81c-0.51,0.04 -1.01,0.04 -1.52,0c-8.36,-0.39 -16.8,-0.03 -25.22,-0.03z" opacity="1"/></g><g id="路径 2" filter="url(#filter_2)"><path id="路径 2" fill="url(#linear_1)" fill-rule="evenodd" d="M252.15 105.652C241.84 107.332 231.95 111.042 223.07 116.562C212.66 122.862 203.9 131.562 197.54 141.942C190.26 153.792 185.73 167.122 184.29 180.952C183.75 185.842 183.75 190.812 183.57 195.752C183.66 196.302 183.86 196.832 184.16 197.292C184.31 196.862 184.68 196.422 184.68 195.982C186.05 190.592 187.72 185.292 189.67 180.082C195.25 166.012 205.39 154.232 218.47 146.622C239.33 134.402 261.78 133.012 284.94 138.622C299.2 142.232 312.78 148.132 325.16 156.082C338.72 164.812 350.87 175.562 361.19 187.962C372.44 201.122 381.35 216.112 387.54 232.282C391.61 242.482 394.33 253.162 395.65 264.062C396.92 274.152 396.66 284.372 394.9 294.382C393.18 305.142 389.28 315.442 383.45 324.652C375.89 336.862 364.56 346.292 351.18 351.512C346.21 353.502 341.09 354.962 336.07 356.662C335.65 356.842 335.26 357.082 334.92 357.382L336.12 357.382C346.82 357.472 357.47 355.982 367.73 352.962C383.34 348.522 397.17 339.292 407.26 326.582C416.82 314.302 423.11 299.812 425.56 284.452C427.88 270.212 427.68 255.682 424.97 241.512C423.2 232.982 420.81 224.592 417.81 216.422C411.77 199.462 403.03 183.592 391.92 169.422C383.67 158.552 374.17 148.692 363.61 140.032C350.15 128.732 334.97 119.632 318.65 113.092C303.78 107.022 287.95 103.662 271.9 103.182C265.32 104.002 258.68 104.622 252.15 105.652Z" opacity="1"/></g></g></g><defs><rect id="path_0" width="512" height="512" x="0" y="0"/><linearGradient id="linear_0" x1="50%" x2="51%" y1="0%" y2="100%" gradientUnits="objectBoundingBox"><stop offset="0" stop-color="#00BAAD" stop-opacity="1"/><stop offset=".479" stop-color="#2A82E4" stop-opacity="1"/><stop offset="1" stop-color="#7948EA" stop-opacity="1"/></linearGradient><filter id="filter_1" width="395.964" height="424.822" x="58.149" y="44.881" color-interpolation-filters="sRGB" filterUnits="userSpaceOnUse"><feFlood flood-opacity="0" result="feFloodId"/><feColorMatrix in="SourceAlpha" result="hardAlpha" type="matrix" values="0 0 0 0 0 0 0 0 0 0 0 0 0 0 0 0 0 0 127 0"/><feOffset dx="0" dy="2"/><feComposite in2="hardAlpha" operator="out"/><feGaussianBlur stdDeviation="2"/><feColorMatrix type="matrix" values="0 0 0 0 0 0 0 0 0 0 0 0 0 0 0 0 0 0 0.2 0"/><feBlend in2="filter_feFlood" mode="normal" result="filter_feFlood_1"/><feBlend in="SourceGraphic" in2="filter_1" mode="normal" result="shape"/></filter><radialGradient id="linear_1" cx="50%" cy="50%" r=".5" fx="50%" fy="50%" gradientTransform="translate(0.5 0.5) scale(1.043567621295987 1) rotate(90) scale(1 0.9582510485369068) translate(-0.5 -0.5)"><stop offset="0" stop-color="#FFC300" stop-opacity="1"/><stop offset="1" stop-color="#FF8D1A" stop-opacity="1"/></radialGradient><filter id="filter_2" width="251.594" height="266.207" x="179.57" y="97.182" color-interpolation-filters="sRGB" filterUnits="userSpaceOnUse"><feFlood flood-opacity="0" result="feFloodId"/><feColorMatrix in="SourceAlpha" result="hardAlpha" type="matrix" values="0 0 0 0 0 0 0 0 0 0 0 0 0 0 0 0 0 0 127 0"/><feOffset dx="0" dy="2"/><feComposite in2="hardAlpha" operator="out"/><feGaussianBlur stdDeviation="2"/><feColorMatrix type="matrix" values="0 0 0 0 0 0 0 0 0 0 0 0 0 0 0 0 0 0 0.2 0"/><feBlend in2="filter_feFlood" mode="normal" result="filter_feFlood_1"/><feBlend in="SourceGraphic" in2="filter_2" mode="normal" result="shape"/></filter></defs></svg>