<svg xmlns="http://www.w3.org/2000/svg" xmlns:xlink="http://www.w3.org/1999/xlink" width="1000" height="1000" fill="none" viewBox="0 0 1000 1000"><g opacity="1" transform="translate(0 0) rotate(0)"><mask id="bg-mask-0" fill="#fff"><use transform="translate(0 0) rotate(0)" xlink:href="#path_0"/></mask><g mask="url(#bg-mask-0)"><path id="路径 1" fill-rule="evenodd" style="fill:#8b44ac" d="M458.004,207.814c23.05,-3.91 80.67,-2.15 104.11,2.93c56.64,12.11 104.49,37.3 145.31,76.17c51.17,48.63 82.62,111.33 91.4,181.84c1.18,10.15 1.96,76.95 1.96,174.21v157.82h-154.3v-17.58c0,-9.77 -0.39,-17.58 -0.98,-17.58c-0.58,0 -7.03,2.93 -14.25,6.64c-23.83,11.92 -49.03,19.92 -81.45,25.59c-20.7,3.71 -67.38,4.1 -88.87,0.97c-97.85,-14.06 -181.83,-74.8 -226.17,-163.08c-7.42,-15.04 -19.92,-47.66 -19.92,-52.35c0,-1.36 5.47,-4.88 12.11,-8c31.25,-14.46 50.39,-50.98 44.53,-84.77c-4.49,-25.98 -21.48,-48.83 -44.73,-59.96c-6.64,-3.12 -11.91,-6.84 -11.91,-8.2c0,-4.3 13.48,-39.46 20.7,-53.52c19.34,-38.87 57.42,-83.4 92,-107.81c38.67,-27.34 82.81,-45.51 130.46,-53.32zM474.614,362.114c-53.13,11.32 -94.54,49.41 -110.55,101.75c-5.08,16.6 -5.27,61.53 -0.2,77.93c33.6,108.99 167.58,140.43 244.53,57.42c14.26,-15.42 28.13,-41.01 33.21,-61.13c4.69,-18.75 4.29,-53.51 -0.78,-72.26c-13.48,-48.64 -49.22,-85.16 -98.83,-100.39c-17.58,-5.47 -49.61,-7.04 -67.38,-3.32z" opacity="1"/><path id="路径 2" fill-rule="evenodd" style="fill:#8b44ac" d="M153.907 541.604C187.107 573.824 242.387 553.514 245.707 508.004C246.877 489.644 242.577 477.344 230.667 465.034C216.407 450.394 192.777 445.114 173.247 451.954C136.917 465.034 126.167 514.454 153.907 541.604Z" opacity="1"/></g></g><defs><rect id="path_0" width="1000" height="1000" x="0" y="0"/></defs></svg>