<svg fill="none" height="35" viewBox="0 0 35 35" width="35" xmlns="http://www.w3.org/2000/svg"><path d="m30.4661 34.928h.2093c2.1842 0 3.9786-1.6362 4.2299-3.7528l.0303-14.1797c-.2484-9.42853-7.9694-16.9955-17.4579-16.9955-9.64507 0-17.4639671 7.8189-17.4639671 17.464 0 9.5419 7.6524471 17.2991 17.1549671 17.464z" fill="#fff"/><g fill="#8b44ac"><path clip-rule="evenodd" d="m17.5239 5.948c-5.4971 0-10.09423 3.85317-11.2379 9.006 1.09492.3069 1.89785 1.3124 1.89785 2.5053 0 1.193-.80293 2.1984-1.89785 2.5054 1.14366 5.1528 5.7408 9.0059 11.2379 9.0059 2.0011 0 3.8829-.5105 5.5223-1.4086v1.3307h5.989v-10.9562c.0055-.1457 0-.3302 0-.4772 0-6.3575-5.1538-11.5113-11.5113-11.5113zm-5.5141 11.5113c0-3.0453 2.4688-5.5141 5.5141-5.5141 3.0454 0 5.5141 2.4688 5.5141 5.5141 0 3.0454-2.4687 5.5141-5.5141 5.5141-3.0453 0-5.5141-2.4687-5.5141-5.5141z" fill-rule="evenodd"/><path d="m7.36841 17.4517c0 1.0174-.82473 1.8421-1.8421 1.8421s-1.84211-.8247-1.84211-1.8421.82474-1.8421 1.84211-1.8421 1.8421.8247 1.8421 1.8421z"/></g></svg>