<?xml version="1.0" standalone="no"?><!DOCTYPE svg PUBLIC "-//W3C//DTD SVG 1.1//EN" "http://www.w3.org/Graphics/SVG/1.1/DTD/svg11.dtd"><svg t="1599837355472" class="icon" viewBox="0 0 1024 1024" version="1.1" xmlns="http://www.w3.org/2000/svg" p-id="2758" xmlns:xlink="http://www.w3.org/1999/xlink" width="200" height="200"><defs><style type="text/css"></style></defs><path d="M832 720a48 48 0 0 1-48-48V352c0-123.712-100.288-224-224-224a48 48 0 1 0-96 0c-123.712 0-224 100.288-224 224v320c0 26.512-21.488 48-48 48a48 48 0 1 0 0 96h640a48 48 0 1 0 0-96zM512 960a96 96 0 0 0 96-96H416a96 96 0 0 0 96 96z" fill="#dbdbdb" p-id="2759"></path></svg>