<svg xmlns="http://www.w3.org/2000/svg" xmlns:xlink="http://www.w3.org/1999/xlink" viewBox="0 0 160.98 160.98"><defs><style>.a{fill:url(#a);}.b{fill:url(#b);}.c{fill:none;}</style><linearGradient id="a" x1="365.494" y1="-30.931" x2="437.438" y2="41.013" gradientTransform="matrix(1, 0, 0, -1, -24.41, 141.686)" gradientUnits="userSpaceOnUse"><stop offset="0" stop-color="#1890de"/><stop offset="0.07" stop-color="#2195e1"/><stop offset="0.31" stop-color="#3ea3ea"/><stop offset="0.54" stop-color="#53adf1"/><stop offset="0.78" stop-color="#60b3f5"/><stop offset="1" stop-color="#64b5f6"/></linearGradient><linearGradient id="b" x1="454.008" y1="-10.693" x2="391.424" y2="51.89" gradientTransform="matrix(1, 0, 0, -1, -24.41, 141.686)" gradientUnits="userSpaceOnUse"><stop offset="0" stop-color="#81c784"/><stop offset="0.1" stop-color="#6cb46f"/><stop offset="0.21" stop-color="#5ba55f"/><stop offset="0.34" stop-color="#519c55"/><stop offset="0.5" stop-color="#4e9952"/><stop offset="0.66" stop-color="#519c55"/><stop offset="0.79" stop-color="#5ba55f"/><stop offset="0.9" stop-color="#6cb46f"/><stop offset="1" stop-color="#81c784"/></linearGradient></defs><title>steam++图标</title><path class="a" d="M395.9,198.573H387.68a4.987,4.987,0,0,1-4.445-3.42c-1.169-4.2-2.315-8.413-3.549-12.591a1.943,1.943,0,0,0-1.153-1.113,62.13,62.13,0,0,1-12.156-5.542,16.549,16.549,0,0,1-2.21-1.363,1.386,1.386,0,0,0-2.025.113c-2.524,1.992-5.105,3.912-7.549,5.985a4.034,4.034,0,0,1-5.7-.222l0,0c-2.226-2.178-4.315-4.492-6.453-6.767-2.718-2.872-5.436-5.743-8.122-8.647a4.766,4.766,0,0,1-.436-6.017c2-2.791,3.8-5.719,5.719-8.574a1.138,1.138,0,0,0,0-1.4,67.05,67.05,0,0,1-6.743-15.2,1.4,1.4,0,0,0-.807-.807q-5.364-1.548-10.752-2.992a4.542,4.542,0,0,1-3.525-4.453V109.112A3.026,3.026,0,0,1,321,105.725c3.226-.145,6.5-.242,9.76-.331a1.122,1.122,0,0,0,1.257-.966v-.01a35.724,35.724,0,0,1,4.718-10.389,1.265,1.265,0,0,0-.064-1.71c-1.9-2.541-3.759-5.122-5.646-7.7a2.662,2.662,0,0,1,.322-3.751,2.69,2.69,0,0,1,.3-.218c3.283-2.307,6.622-4.557,9.865-6.928a3.985,3.985,0,0,1,4.581.072c2.42,1.855,4.928,3.622,7.324,5.517a2.131,2.131,0,0,0,2.21.4,38.241,38.241,0,0,1,10.026-1.855c.525,0,.758-.2.807-.718.064-.7.21-1.4.274-2.1.145-1.572.242-3.145.4-4.718a1.71,1.71,0,0,1,1.887-1.513q.069.007.138.021a42.577,42.577,0,0,1,4.267.758c3.017.621,6.033,1.266,9.058,1.895a5.091,5.091,0,0,1,4.081,3.654c.678,2.073,1.4,4.138,2.235,6.155a3.329,3.329,0,0,0,1.387,1.322c.807.468,1.7.759,2.541,1.154a2.5,2.5,0,0,1,.54.476,2.1,2.1,0,0,1-.7.072,34.852,34.852,0,0,0-9.68-1.153c-6.928.161-13.341,2.008-18.794,6.453a28.048,28.048,0,0,0-8.541,12.284c-2.2,5.969-2.356,12.1-1.614,18.286A44.225,44.225,0,0,0,358.3,134.5c1.25,2.533,2.759,4.937,4.138,7.405.363.653.629.742,1.161.1.968-1.162,2.025-2.251,3.057-3.356a2.458,2.458,0,0,0,.718-1.911c-.242-4.953-.258-9.93-.758-14.866a4.841,4.841,0,0,1,1.517-4.219c3.315-3.6,6.581-7.259,9.84-10.873a2.661,2.661,0,0,1,2.073-.951c4.186-.154,8.365-.4,12.551-.573,1.242-.057,1.815.266,1.984,1.363a2.613,2.613,0,0,1-.524,1.9c-3.227,3.621-6.453,7.178-9.679,10.735a1.122,1.122,0,0,0-.267,1.444c1.178,2.565,2.283,5.163,3.453,7.736a1.412,1.412,0,0,0,.709.677c2.727.952,5.477,1.863,8.212,2.8.605.21.952-.089,1.314-.5q4.623-5.13,9.26-10.228c.242-.258.444-.637.742-.742a3.985,3.985,0,0,1,1.864-.379,1.614,1.614,0,0,1,1.274,1.734c.137,2.606.25,5.211.395,7.816.1,1.7.267,3.4.307,5.106a2.316,2.316,0,0,1-.508,1.468q-5.646,6.324-11.406,12.567a2.065,2.065,0,0,1-.976.516,5.7,5.7,0,0,1-1.242.137c-5.243.258-10.486.509-15.729.807a1.844,1.844,0,0,0-1.153.532c-1.46,1.533-2.864,3.122-4.307,4.679-.565.605-.452,1,.193,1.476a53.35,53.35,0,0,0,14.737,7.9,40.74,40.74,0,0,0,13.551,2.251,29.482,29.482,0,0,0,18.455-6.05,28.126,28.126,0,0,0,8.873-12.155c.193-.484.451-.928.685-1.388a7.1,7.1,0,0,1,.1,1.614c-.371,2.315-.807,4.605-1.194,6.92a1.612,1.612,0,0,0,.3,1.129c2.057,2.719,4.129,5.429,6.243,8.067,1.557,1.976,2.041,3.936.645,6.275-2.129,3.549-4.081,7.211-6.154,10.792-1.017,1.751-2.565,2.041-4.235.807q-3.3-2.419-6.542-4.945c-2.581-2.008-2.548-2.008-5.194-.129a31.567,31.567,0,0,1-8.623,4.211,1.153,1.153,0,0,0-.97,1.311c0,.02.006.04.01.06.113,3.767.1,7.542.3,11.293a3.468,3.468,0,0,1-3.194,3.722,3.288,3.288,0,0,1-.476,0C401.2,198.46,398.545,198.573,395.9,198.573Z" transform="translate(-298.211 -52.799)"/><path class="b" d="M383.7,85.241a42.284,42.284,0,0,1,14.7,3.115,52.189,52.189,0,0,1,14.136,8.472,54.791,54.791,0,0,1,8.9,9.241,52.375,52.375,0,0,1,8.14,14.775,55.412,55.412,0,0,1,2.25,7.89,38.609,38.609,0,0,1,.186,13.5,28.953,28.953,0,0,1-5.753,13.246,24.359,24.359,0,0,1-12.429,8.294,34.135,34.135,0,0,1-9.937,1.392h-.38a1.416,1.416,0,0,1,.364-.227c1.578-.534,3.188-.995,4.75-1.618a20.873,20.873,0,0,0,10.147-8.448,25.278,25.278,0,0,0,3.6-9.516,31.969,31.969,0,0,0,.234-9.532,39.875,39.875,0,0,0-2.548-9.993,47.7,47.7,0,0,0-8.286-13.934,49.824,49.824,0,0,0-11.329-10.026A42.883,42.883,0,0,0,387.8,96.383c-7.283-1.764-14.339-1.327-20.9,2.516a21.224,21.224,0,0,0-9.055,10.52,48.735,48.735,0,0,0-1.569,5c0,.138-.114.275-.162.413a1.234,1.234,0,0,1-.186-.485c.056-1.554.056-3.116.226-4.653a29.2,29.2,0,0,1,4.167-12.267,23.955,23.955,0,0,1,8.027-7.979,24.9,24.9,0,0,1,9.144-3.431C379.543,85.694,381.631,85.5,383.7,85.241Z" transform="translate(-298.211 -52.799)"/><rect class="c" width="160.98" height="160.98"/></svg>