<svg id="abee0869-1b5a-43b0-ad2d-68b9c06591d9" data-name="steampp" xmlns="http://www.w3.org/2000/svg" xmlns:xlink="http://www.w3.org/1999/xlink" viewBox="0 0 151.22 160.98"><defs><style>.bee71911-c304-409c-b1a3-5c617b033d97{fill:#fff;}.e33bb62c-3cd8-43d8-b337-a8f898048f78{fill:url(#fe73b66f-3888-4385-9976-c891a0dc3db5);}.f52f40e5-9b40-42f3-ad92-92d8d45039d2{fill:url(#f2f22e4f-2cb9-40ee-9151-f69f4c5c4c7f);}</style><linearGradient id="fe73b66f-3888-4385-9976-c891a0dc3db5" x1="53.34" y1="148.33" x2="142.57" y2="59.1" gradientUnits="userSpaceOnUse"><stop offset="0" stop-color="#1890de"/><stop offset="0.07" stop-color="#2195e1"/><stop offset="0.31" stop-color="#3ea3ea"/><stop offset="0.54" stop-color="#53adf1"/><stop offset="0.78" stop-color="#60b3f5"/><stop offset="1" stop-color="#64b5f6"/></linearGradient><linearGradient id="f2f22e4f-2cb9-40ee-9151-f69f4c5c4c7f" x1="162.65" y1="122.92" x2="85.29" y2="45.56" gradientUnits="userSpaceOnUse"><stop offset="0" stop-color="#81c784"/><stop offset="0.1" stop-color="#6cb46f"/><stop offset="0.21" stop-color="#5ba55f"/><stop offset="0.34" stop-color="#519c55"/><stop offset="0.5" stop-color="#4e9952"/><stop offset="0.66" stop-color="#519c55"/><stop offset="0.79" stop-color="#5ba55f"/><stop offset="0.9" stop-color="#6cb46f"/><stop offset="1" stop-color="#81c784"/></linearGradient></defs>

<path class="e33bb62c-3cd8-43d8-b337-a8f898048f78" d="M121.28,180.51c-3.4,0-6.79,0-10.19,0a6.18,6.18,0,0,1-5.51-4.24c-1.45-5.21-2.87-10.43-4.4-15.61a2.41,2.41,0,0,0-1.43-1.38,77.05,77.05,0,0,1-15.07-6.87,20.55,20.55,0,0,1-2.74-1.69c-1-.8-1.7-.51-2.51.14-3.13,2.47-6.33,4.85-9.36,7.42A5,5,0,0,1,63,158c-2.76-2.7-5.35-5.57-8-8.39-3.37-3.56-6.74-7.12-10.07-10.72a5.91,5.91,0,0,1-.54-7.46c2.48-3.46,4.71-7.09,7.09-10.63a1.41,1.41,0,0,0,0-1.73,83.14,83.14,0,0,1-8.36-18.84,1.73,1.73,0,0,0-1-1q-6.65-1.92-13.33-3.71A5.63,5.63,0,0,1,24.42,90q0-10.2,0-20.4c0-2.64,1.36-4.09,4-4.2,4-.18,8.06-.3,12.1-.41a1.39,1.39,0,0,0,1.56-1.21,44.26,44.26,0,0,1,5.85-12.88,1.57,1.57,0,0,0-.08-2.12c-2.36-3.15-4.66-6.35-7-9.55a3.3,3.3,0,0,1,.77-4.92c4.07-2.86,8.21-5.65,12.23-8.59a4.94,4.94,0,0,1,5.68.09c3,2.3,6.11,4.49,9.08,6.84a2.64,2.64,0,0,0,2.74.5,47.44,47.44,0,0,1,12.43-2.3c.65,0,.94-.25,1-.89.08-.87.26-1.73.34-2.6.18-1.95.3-3.9.5-5.85a2.12,2.12,0,0,1,2.51-1.85,53.28,53.28,0,0,1,5.29.94c3.74.77,7.48,1.57,11.23,2.35a6.31,6.31,0,0,1,5.06,4.53c.84,2.57,1.74,5.13,2.77,7.63a4.14,4.14,0,0,0,1.72,1.64c1,.58,2.11.94,3.15,1.43a3.09,3.09,0,0,1,.67.59,2.63,2.63,0,0,1-.87.09,43.19,43.19,0,0,0-12-1.43c-8.59.2-16.54,2.49-23.3,8A34.77,34.77,0,0,0,71.26,60.66c-2.73,7.4-2.92,15-2,22.67a54.81,54.81,0,0,0,5.41,17.74c1.55,3.14,3.42,6.12,5.13,9.18.45.81.78.92,1.44.13,1.2-1.44,2.51-2.79,3.79-4.16a3.05,3.05,0,0,0,.89-2.37c-.3-6.14-.32-12.31-.94-18.43a6,6,0,0,1,1.88-5.23c4.11-4.46,8.16-9,12.2-13.48a3.3,3.3,0,0,1,2.57-1.18c5.19-.19,10.37-.49,15.56-.71,1.54-.07,2.25.33,2.46,1.69a3.24,3.24,0,0,1-.65,2.35c-4,4.49-8,8.9-12,13.31a1.39,1.39,0,0,0-.33,1.79c1.46,3.18,2.83,6.4,4.28,9.59a1.75,1.75,0,0,0,.88.84c3.38,1.18,6.79,2.31,10.18,3.47.75.26,1.18-.11,1.63-.62q5.73-6.36,11.48-12.68c.3-.32.55-.79.92-.92a4.94,4.94,0,0,1,2.31-.47,2,2,0,0,1,1.58,2.15c.17,3.23.31,6.46.49,9.69.12,2.11.33,4.22.38,6.33a2.87,2.87,0,0,1-.63,1.82q-7,7.84-14.14,15.58a2.57,2.57,0,0,1-1.21.64,7.13,7.13,0,0,1-1.54.17c-6.5.32-13,.63-19.5,1a2.29,2.29,0,0,0-1.43.66c-1.81,1.9-3.55,3.87-5.34,5.8-.7.75-.56,1.24.24,1.83a66.14,66.14,0,0,0,18.27,9.79,50.54,50.54,0,0,0,16.8,2.79c8.41-.07,16.16-2.26,22.88-7.5a34.86,34.86,0,0,0,11-15.07c.24-.6.56-1.15.85-1.72a8.81,8.81,0,0,1,.12,2c-.46,2.87-1,5.71-1.48,8.58a2,2,0,0,0,.37,1.4c2.55,3.37,5.12,6.73,7.74,10,1.93,2.45,2.53,4.88.8,7.78-2.64,4.4-5.06,8.94-7.63,13.38-1.26,2.17-3.18,2.53-5.25,1q-4.09-3-8.11-6.13c-3.2-2.49-3.16-2.49-6.44-.16a39.15,39.15,0,0,1-10.69,5.22,1.43,1.43,0,0,0-1.19,1.7c.14,4.67.12,9.35.37,14a4.3,4.3,0,0,1-4.55,4.62C127.85,180.37,124.56,180.51,121.28,180.51Z" transform="translate(-24.41 -19.59)"/>

<path class="f52f40e5-9b40-42f3-ad92-92d8d45039d2" d="M105.9,39.94a52.29,52.29,0,0,1,18.17,3.85,64.5,64.5,0,0,1,17.47,10.47,67.77,67.77,0,0,1,11,11.42,64.77,64.77,0,0,1,10.06,18.26,68.43,68.43,0,0,1,2.78,9.75,47.72,47.72,0,0,1,.23,16.69,35.77,35.77,0,0,1-7.11,16.37A30.1,30.1,0,0,1,143.14,137a42.13,42.13,0,0,1-12.28,1.72c-.16,0-.32,0-.47,0a1.78,1.78,0,0,1,.45-.28c1.95-.66,3.94-1.23,5.87-2A25.79,25.79,0,0,0,149.25,126a31.24,31.24,0,0,0,4.45-11.76,39.49,39.49,0,0,0,.29-11.78,49.28,49.28,0,0,0-3.15-12.35A58.94,58.94,0,0,0,140.6,72.89a61.58,61.58,0,0,0-14-12.39,53,53,0,0,0-15.64-6.79c-9-2.18-17.72-1.64-25.83,3.11a26.22,26.22,0,0,0-11.19,13C73.09,71.84,72.6,74,72,76c0,.17-.14.34-.2.51a1.55,1.55,0,0,1-.23-.6c.07-1.92.07-3.85.28-5.75A36.07,36.07,0,0,1,77,55a29.6,29.6,0,0,1,9.92-9.86A30.76,30.76,0,0,1,98.22,40.9C100.76,40.5,103.34,40.26,105.9,39.94Z" transform="translate(-24.41 -19.59)"/></svg>