<?xml version="1.0" standalone="no"?><!DOCTYPE svg PUBLIC "-//W3C//DTD SVG 1.1//EN" "http://www.w3.org/Graphics/SVG/1.1/DTD/svg11.dtd"><svg t="1618543716212" class="icon" viewBox="0 0 1024 1024" version="1.1" xmlns="http://www.w3.org/2000/svg" p-id="2260" xmlns:xlink="http://www.w3.org/1999/xlink" width="128" height="128"><defs><style type="text/css"></style></defs><path d="M897.22 451.24c53.74 0.36 71.14-14.86 77.84-24.74 24.94-32.64-14.12-95.2-105.7-142.66 35.52-67.16 60.22-127.36 72.68-170.6 6.76-23.66 2.18-38 0.9-40.5-3.44 21.04-31.7 96.92-96.4 200.1-50-22.44-113.04-40.2-187.54-47.6-17.88-33.88-69.76-127.72-120.96-177.86C504.36 14.28 477.4 2.14 456.36 0.44h-0.1c-27.66-3.1-45.34 11.7-54.8 22-34.4 37.06-48.66 97.74-50 168.14-14.48-24.7-34.34-49.26-57-51.86h-0.36c-41.32-6.96-76.78 58.44-72 162.58-76.72 2.76-142 11.5-186 22.46-19.8 4.9-32.44 14.54-35.52 19.44 2-0.76 44.8-18.44 223.12-18.44 10.44 106 59.5 203.64 52 186.38-19.46 30.8-76.48 124.72-94.62 195.4-11.74 45.76-8.74 75.22 0.3 94.28 11.14 25.5 32.82 33.44 46.4 36.52 50 11.42 110.76-7.26 173.4-42.28-15.06 25.68-27.8 57.02-18.12 78.68 14.62 39.3 88.98 37.32 176.88-18.9 40.36 64.36 80.14 115.88 111.4 148.24a79.58 79.58 0 0 0 17.5 14.18c10.28 6.42 17.16 6.74 17.16 6.74-16.48-13.5-68-76-125.08-183.56 44.44-32 91.3-77.74 134.94-138.54 245.64 9.2 286.58-49.52 296-63.28 29.34-39.76 6.86-114.88-114.64-187.38z m-155.7 212.44c47.62-75.42 60.68-135.54 58.9-184.66 55.72 35.14 94.36 75.16 98.12 117.66 2.28 25.86-16.2 58.24-157.02 67zM433.8 775.38c19.52-12.46 39.06-26.24 58.4-40.98 13.36 26.66 27.2 52.2 41.2 76.38-81.2 43.72-137.68 25.52-99.6-35.4z m430-342.7c-20.58-10.68-42.32-20.68-64.76-30.1a1444.918 1444.918 0 0 0 45.48-73.8c78.12 48.2 91.8 106.36 19.28 103.9zM558.36 796c-11.02-22.7-22-47-33-72.88 86.5 2.54 124.84-37.46 126.56-40.82 0 0.14-50 31.28-125.06 24.5a1437.56 1437.56 0 0 0 170.12-168q26.12-30.62 49.86-62.22c-0.72-0.58-3.08-6-33.02-24-103.4 120.54-204.68 196-265.5 231.84-41.18-22.36-81.68-63.56-111.42-122.98-40-79.84-60-164.78-63.14-232.14 24.6 1.82 50.54 4.34 77.7 7.76-44.58 73.6-28.78 126-26.94 128.46 0-0.14-1.9-58.34 40.28-119.14a1390.46 1390.46 0 0 0 89.34 305.68c1.86-0.76 3.68 1.76 37.34-16.5-52.66-148.94-67.52-276.34-68-346.86 40-24.84 96.36-39.6 163.26-35.62 89.14 5.34 172.72 30.5 232.64 61.42q-21.38 31.32-46.66 64.94C731.26 304 678.2 291.68 675 292c0.22 0 51.8 28.14 83.04 94.44a1435.26 1435.26 0 0 0-230.68-63.42 1293.216 1293.216 0 0 0-78.78-12.1c-0.14 0.9-3.62 3.7-4.32 40.66C600 380.56 717.56 431.36 778.72 466c1.48 47.1-13.9 103.22-50.82 159.14-49.2 74.62-112.78 134.46-169.54 170.86z m54.8-574c-89.12-3.32-147.16 14.86-189.38 41.34 4-104.6 42.62-152.76 76.42-150.56C534 104.3 610 217.1 613.16 222z m-261.3 6.2c0.96 24.22 3.18 49.24 6.42 74.56-29.1-1.7-57.48-2.5-84.8-2.52-0.16 6.48-0.24-102 49.34-99.18h0.18c11.52 2.18 21.26 13.76 28.86 27.14z m-56.12 324c41.52 79.4 86.6 121.14 130.5 144.62-93.58 49.52-155.06 40-169.84 9.02-0.4-0.42-22.26-30.6 39.34-153.62z m420.12 149.6" p-id="2261" fill="#418EC3"></path></svg>