<?xml version="1.0" standalone="no"?><!DOCTYPE svg PUBLIC "-//W3C//DTD SVG 1.1//EN" "http://www.w3.org/Graphics/SVG/1.1/DTD/svg11.dtd"><svg t="1618542679091" class="icon" viewBox="0 0 1024 1024" version="1.1" xmlns="http://www.w3.org/2000/svg" p-id="1730" xmlns:xlink="http://www.w3.org/1999/xlink" width="200" height="200"><defs><style type="text/css"></style></defs><path d="M150.954667 0C92.416 0 70.826667 21.589333 70.826667 80.128v706.773333c0 6.613333 0.298667 12.757333 0.810666 18.389334 1.450667 12.885333 1.578667 25.301333 13.525334 39.338666 1.109333 1.621333 13.226667 10.496 13.226666 10.496 6.442667 3.242667 10.965333 5.461333 18.346667 8.533334l355.584 148.992c18.389333 8.405333 26.154667 11.776 39.509333 11.306666H512c13.525333 0.469333 21.290667-2.901333 39.68-11.306666l355.541333-148.992c7.424-3.072 11.776-5.290667 18.389334-8.533334 0 0 12.117333-9.045333 13.226666-10.496 11.946667-14.037333 12.074667-26.453333 13.525334-39.338666 0.512-5.632 0.853333-11.776 0.853333-18.346667V80.085333C953.173333 21.589333 931.541333 0 873.002667 0z m569.856 132.693333h29.013333c48.384 0 71.936 23.552 71.936 72.405334v80.170666h-58.538667V208.341333c0-15.658667-7.253333-22.912-22.4-22.912h-9.984c-15.658667 0-22.912 7.253333-22.912 22.912v248.021334c0 15.616 7.253333 22.869333 22.912 22.869333h11.093334c15.018667 0 22.272-7.253333 22.272-22.869333v-88.746667h58.709333v91.477333c0 48.853333-24.064 72.874667-72.576 72.874667h-29.525333c-48.682667 0-72.533333-24.192-72.533334-72.874667V205.610667c0-48.725333 23.850667-72.917333 72.533334-72.917334z m-520.021334 3.242667H333.653333v54.485333H260.437333v111.104h70.485334v54.357334H260.437333v118.357333h74.197334v54.357333H200.789333z m162.858667 0h93.696c48.512 0 72.533333 24.192 72.533333 73.045333v104.32c0 48.853333-24.021333 72.917333-72.533333 72.917334h-33.877333v142.378666H363.648z m193.194667 0h59.648v392.661333h-59.648z m-133.546667 52.906667v144.64h24.704c14.976 0 22.229333-7.253333 22.229333-23.04v-98.56c0-15.786667-7.253333-23.04-22.229333-23.04zM258.816 622.08h8.874667l1.962666 0.298667h3.2l1.621334 0.512h1.621333l1.621333 0.469333 1.578667 0.341333 1.450667 0.298667 1.450666 0.341333 1.450667 0.298667 1.621333 0.512 1.28 0.298667 1.28 0.512 1.621334 0.469333 1.28 0.64 1.664 0.64 1.450666 0.64 1.28 0.853333 1.621334 0.597334 1.109333 0.853333 1.621333 0.768 1.28 0.853333 1.450667 0.768 1.28 0.981334 1.28 0.810666 1.28 0.938667 1.322667 0.981333 1.28 1.109334 1.28 0.981333-0.938667 1.28-1.152 1.152-0.938667 1.28-1.152 1.28-0.938666 1.152-0.981334 1.109333-1.152 1.28-0.938666 1.28-0.981334 1.152-1.109333 1.28-0.981333 1.28-1.152 1.28-0.938667 1.152-0.981333 1.28-1.109334 1.28-0.981333 1.322667-1.109333 1.109333-0.981334 1.28-1.28-0.938666-1.28-1.109334-1.28-0.853333-1.493333-0.938667-1.109333-0.810666-1.450667-0.810667-1.28-0.810667-1.493333-0.810666-1.28-0.64-1.28-0.64-1.28-0.469334-1.450667-0.512-1.621333-0.426666-1.28-0.341334-1.621334-0.341333-1.621333-0.341333-1.621333-0.128h-1.749334l-1.962666-0.341334h-3.2l-1.621334 0.170667h-1.621333l-1.621333 0.469333-1.450667 0.341334-1.450667 0.469333-1.578666 0.469333-1.28 0.64-1.621334 0.682667-1.152 0.768-1.28 0.853333-1.28 0.768-1.152 0.981334-1.109333 0.981333-1.152 0.938667-0.938667 1.152-1.28 1.109333-0.853333 1.28-0.768 1.152-0.981333 1.28-0.64 1.450667-0.853334 1.28-0.768 1.450666-0.469333 1.450667-0.682667 1.450667-0.426666 1.621333-0.213334 1.621333-0.469333 1.450667-0.341333 1.792v1.578667l-0.298667 1.621333v3.84l0.170667 1.664 0.128 1.450667 0.170666 1.578666 0.341334 1.621334 0.469333 1.28 0.170667 1.621333 0.469333 1.28 0.512 1.28 0.64 1.664 0.810667 1.578667 0.64 1.28 0.810666 1.28 0.938667 1.322666 0.981333 1.28 0.810667 1.152 1.28 1.109334 0.981333 1.152 1.109334 0.938666 1.28 0.981334 1.28 0.981333 1.322666 0.810667 1.28 0.768 1.450667 0.682666 1.621333 0.64 1.28 0.64 1.621334 0.469334 1.621333 0.512 1.621333 0.298666 1.578667 0.341334 1.621333 0.170666 1.962667 0.128h5.290667l1.962666-0.298666h1.578667l1.621333-0.512 1.621334-0.298667 1.621333-0.512 1.450667-0.298667 1.450666-0.64 1.28-0.64 1.621334-0.682666 0.981333-0.64 1.28-0.810667v-14.805333h-23.552v-23.893334h53.205333v53.248l-1.109333 0.938667-1.28 0.981333-1.152 0.810667-1.28 0.981333-1.28 0.768-1.28 0.981334-1.28 0.810666-1.322667 0.810667-1.621333 0.810667-1.450667 0.810666-1.28 0.810667-1.621333 0.64-1.28 0.810667-1.621333 0.64-1.621334 0.64-1.621333 0.64-1.450667 0.64-1.450666 0.469333-1.450667 0.512-1.578667 0.469333-1.450666 0.469334-1.621334 0.512-1.450666 0.298666-1.621334 0.341334-1.621333 0.341333-1.621333 0.298667-1.578667 0.170666-1.621333 0.170667-1.621334 0.170667-1.92 0.128-1.621333 0.170666-1.792 0.170667h-8.362667l-1.792-0.341333h-1.621333l-1.578667-0.298667h-1.621333l-1.621333-0.512-1.621334-0.298667-1.621333-0.341333-1.578667-0.298667-1.28-0.512-1.621333-0.298666-1.621333-0.512-1.450667-0.64-1.450667-0.469334-1.621333-0.64-1.450667-0.64-1.621333-0.64-1.28-0.682666-1.621333-0.768-1.109334-0.853334-1.621333-0.768-1.152-0.853333-1.28-0.768-1.28-0.981333-1.28-0.981334-1.450667-0.938666-0.981333-0.981334-1.28-0.981333-1.152-1.109333-1.109333-0.981334-1.152-1.109333-0.938667-1.152-1.152-1.109333-0.938667-1.28-0.981333-1.152-0.810667-1.28-0.981333-1.28-0.810667-1.28-0.768-1.28-0.853333-1.493334-0.768-1.28-0.64-1.450666-0.64-1.450667-0.682667-1.450667-0.64-1.450666-0.469333-1.28-0.64-1.450667-0.341333-1.450667-0.469334-1.450666-0.341333-1.621334-0.469333-1.450666-0.341334-1.621334-0.128-1.450666-0.341333-1.621334-0.170667-1.450666-0.128-1.621334-0.170666-1.578666-0.170667-1.621334v-8.874666l0.341333-1.621334v-1.749333l0.426667-1.621333v-1.621334l0.512-1.621333 0.512-1.578667 0.298667-1.621333 0.469333-1.450667 0.512-1.621333 0.469333-1.450667 0.64-1.621333 0.64-1.450667 0.682667-1.450666 0.64-1.450667 0.64-1.450667 0.810667-1.450666 0.810666-1.28 0.768-1.28 0.853334-1.28 0.768-1.28 0.981333-1.322667 0.981333-1.28 0.938667-1.28 1.152-1.152 0.938667-1.109333 0.981333-1.152 1.28-1.109334 0.981333-1.152 1.28-0.981333 1.152-1.109333 1.28-0.981334 1.28-0.938666 1.28-0.853334 1.28-0.938666 1.28-0.810667 1.322667-0.810667 1.450667-0.810666 1.621333-0.810667 1.28-0.768 1.621333-0.682667 1.450667-0.64 1.621333-0.810666 1.28-0.426667 1.621334-0.512 1.450666-0.64 1.450667-0.341333 1.450667-0.469334 1.621333-0.341333 1.450667-0.469333 1.578666-0.341334h1.621334l1.621333-0.469333h1.621333l1.621334-0.341333h1.578666z m511.530667 0.298667h8.832l1.962666 0.341333h3.2l1.621334 0.469333h1.92l1.621333 0.512 1.450667 0.298667 1.621333 0.341333 1.621333 0.298667 1.450667 0.341333 1.621333 0.469334 1.578667 0.512 1.28 0.298666 1.621333 0.64 1.621334 0.512 1.28 0.64 1.621333 0.64 1.621333 0.64 1.450667 0.853334 1.152 0.597333 1.578667 0.853333 1.450666 0.768 1.28 0.810667 1.493334 0.981333 1.28 0.768 1.28 0.981334 1.28 0.981333 1.28 0.938667-0.938667 1.28-0.810667 1.322666-0.981333 1.28-0.938667 1.28-0.981333 1.450667-0.810667 1.28-0.981333 1.28-0.938667 1.322667-0.853333 1.28-0.938667 1.28-0.981333 1.28-0.938667 1.322666-0.853333 1.450667-0.938667 1.28-1.109333 1.28-0.853333 1.28-0.938667 1.322667-1.28-0.981334-1.450667-0.810666-1.28-0.768-1.28-0.981334-1.493333-0.64-1.28-0.853333-1.621333-0.597333-1.109334-0.64-1.621333-0.682667-1.28-0.64-1.28-0.469333-1.450667-0.64-1.621333-0.469334-1.621333-0.512-1.621334-0.469333-1.749333-0.341333-1.621333-0.298667-1.621334-0.341333-1.621333-0.170667-1.578667-0.170667-1.450666-0.128h-3.584l-1.749334 0.298667-1.621333 0.341333-1.621333 0.298667-1.28 0.682667-1.109334 0.64-1.450666 1.28-0.981334 1.450666-0.64 1.450667v4.010667l0.810667 1.792 0.64 0.981333 1.109333 1.109333 1.621334 0.853334 1.28 0.768 1.621333 0.64 1.621333 0.64 2.090667 0.64 1.28 0.341333 1.28 0.469333 1.621333 0.341334 1.28 0.469333 1.621334 0.341333 1.792 0.469334 1.749333 0.469333 1.792 0.512 1.792 0.298667 1.578667 0.512 1.792 0.469333 1.621333 0.341333 1.578667 0.469334 1.621333 0.469333 1.621333 0.512 1.621334 0.469333 1.450666 0.469334 1.621334 0.512 1.578666 0.64 1.621334 0.810666 1.621333 0.64 1.621333 0.810667 1.621334 0.810667 1.28 0.810666 1.28 0.768 1.450666 0.981334 1.152 0.853333 1.450667 1.109333 1.109333 1.109334 1.28 1.28 1.152 1.152 0.810667 1.28 1.109333 1.621333 0.810667 1.109333 0.64 1.621334 0.810667 1.109333 0.469333 1.621333 0.512 1.28 0.298667 1.621334 0.341333 1.621333 0.298667 1.621333 0.170666 1.621334 0.170667 1.578666v4.053334l-0.170667 1.749333-0.170666 1.621333-0.128 1.792-0.341334 1.621334-0.469333 1.578666-0.341333 1.621334-0.469334 1.621333-0.64 1.450667-0.64 1.28-0.682666 1.450666-0.768 1.28-0.981334 1.28-0.853333 1.28-0.768 1.322667-1.109333 1.152-0.981334 1.109333-1.152 0.981334-1.28 1.109333-1.109333 0.981333-1.28 0.981334-1.28 0.768-1.322667 0.981333-1.621333 0.810667-1.28 0.64-1.621333 0.853333-1.621334 0.597333-1.578666 0.64-1.621334 0.512-1.621333 0.469334-1.28 0.469333-1.621333 0.341333-1.621334 0.341334-1.28 0.298666-1.621333 0.341334h-1.621333l-1.578667 0.298666h-1.621333l-1.621334 0.341334h-11.946666l-1.578667-0.170667-1.621333-0.170667-1.792-0.128-1.621334-0.341333-1.578666-0.170667-1.621334-0.298666-1.621333-0.341334-1.792-0.469333-1.578667-0.341333-1.621333-0.469334-1.621333-0.341333-1.621334-0.469333-1.578666-0.512-1.621334-0.64-1.450666-0.469334-1.621334-0.469333-1.621333-0.682667-1.28-0.64-1.621333-0.64-1.28-0.810666-1.621334-0.64-1.450666-0.810667-1.109334-0.810667-1.621333-0.810666-1.152-0.768-1.450667-0.853334-1.28-0.938666-1.28-0.981334-1.28-0.938666-1.28-0.981334-1.152-0.981333-1.28-1.109333 0.938667-1.28 1.152-1.152 0.981333-1.28 1.109334-1.28 0.981333-1.152 0.938667-1.28 1.152-1.28 0.981333-1.152 1.109333-1.28 0.981334-1.109334 1.109333-1.28 0.981333-1.28 0.938667-1.152 1.152-1.28 0.981333-1.28 1.109334-1.152 1.152-1.28 1.109333 0.938667 1.621333 0.981333 1.109334 0.981334 1.621333 0.938666 1.28 0.853334 1.450667 0.938666 1.28 0.810667 1.493333 0.64 1.28 0.810667 1.450667 0.64 1.621333 0.64 1.28 0.64 1.621333 0.469333 1.28 0.682667 1.621334 0.426666 1.578666 0.512 1.621334 0.512 1.621333 0.298667 1.621333 0.341333 1.621334 0.298667h1.749333l1.621333 0.512h8.874667l1.621333-0.341333 1.578667-0.341334 1.28-0.298666 1.28-0.469334 1.152-0.682666 1.450667-0.938667 0.853333-1.152 0.768-1.28 0.469333-1.621333v-3.712l-0.64-1.578667-0.938666-1.28-0.981334-0.981333-1.450666-0.981334-1.152-0.64-1.578667-0.64-1.621333-0.64-1.92-0.853333-1.152-0.298667-1.28-0.341333-1.621334-0.426667-1.28-0.341333-1.621333-0.512-1.621333-0.298667-1.749334-0.512-1.621333-0.298666-1.792-0.512-1.578667-0.298667-1.621333-0.512-1.621333-0.298667-1.621334-0.512-1.621333-0.426666-1.578667-0.341334-1.450666-0.512-1.450667-0.469333-1.450667-0.512-1.621333-0.64-1.792-0.64-1.621333-0.64-1.578667-0.64-1.621333-0.810667-1.621334-0.810666-1.109333-0.810667-1.621333-0.810667-1.152-0.938666-1.450667-0.853334-0.938667-0.938666-1.152-1.109334-1.28-1.152-0.981333-1.109333-0.938667-1.152-0.853333-1.109333-0.768-1.28-0.853333-1.450667-0.597334-1.152-0.512-1.28-0.469333-1.450667-0.469333-1.28-0.341334-1.621333-0.298666-1.450667v-1.621333l-0.341334-1.621333v-6.912l0.170667-1.621334 0.170667-1.621333 0.298666-1.28 0.341334-1.621333 0.469333-1.28 0.341333-1.621334 0.64-1.28 0.64-1.621333 0.64-1.28 0.810667-1.621333 0.810667-1.28 1.109333-1.28 0.853333-1.28 1.28-1.28 1.109334-1.152 0.981333-1.28 1.450667-1.152 0.938666-0.810667 1.450667-0.981333 1.28-0.938667 1.28-0.853333 1.621333-0.768 1.28-0.64 1.664-0.810667 1.28-0.64 1.621334-0.512 1.578666-0.64 1.621334-0.469333 1.152-0.341334 1.578666-0.298666 1.28-0.341334 1.621334-0.298666 1.621333-0.341334 1.621333-0.170666 1.621334-0.170667 1.621333-0.128z m-394.112 1.152h30.165333l0.64 1.450666 0.64 1.450667 0.64 1.450667 0.469333 1.621333 0.64 1.450667 0.64 1.450666 0.682667 1.450667 0.64 1.450667 0.469333 1.450666 0.810667 1.578667 0.64 1.450667 0.64 1.493333 0.341333 1.450667 0.64 1.450666 0.810667 1.450667 0.64 1.578667 0.64 1.450666 0.469333 1.450667 0.64 1.450667 0.853334 1.450666 0.426666 1.450667 0.682667 1.621333 0.469333 1.621334 0.64 1.28 0.853334 1.621333 0.597333 1.28 0.64 1.621333 0.512 1.621334 0.469333 1.28 0.810667 1.621333 0.64 1.28 0.64 1.621333 0.469333 1.28 0.682667 1.621334 0.810667 1.621333 0.64 1.450667 0.469333 1.450666 0.469333 1.450667 0.64 1.450667 0.853334 1.450666 0.597333 1.578667 0.682667 1.493333 0.426666 1.450667 0.682667 1.450667 0.64 1.450666 0.64 1.450667 0.64 1.578667 0.512 1.450666 0.64 1.450667 0.810667 1.450667 0.64 1.450666 0.64 1.450667 0.341333 1.621333 0.64 1.450667 0.810667 1.450667 0.64 1.450666 0.469333 1.450667 0.64 1.450667 0.64 1.621333 0.853333 1.621333 0.426667 1.28 0.682667 1.621334 0.469333 1.28 0.64 1.621333 0.810667 1.621333 0.64 1.28 0.469333 1.621334 0.682667 1.28 0.469333 1.621333 0.810667 1.28 0.64 1.621333 0.469333 1.621334 0.64 1.28 0.682667 1.621333 0.768 1.28 0.682666 1.621333 0.426667 1.578667 0.512 1.28 0.64 1.621333 0.853333 1.28h-33.408l-0.853333-1.408-0.426667-1.450666-0.682666-1.450667-0.64-1.621333-0.469334-1.450667-0.64-1.450667-0.64-1.450666-0.512-1.450667-0.64-1.450667-0.64-1.450666-0.469333-1.450667-0.64-1.621333-0.64-1.450667-0.512-1.450667-0.64-1.450666H367.658667l-0.64 1.621333-0.469334 1.28-0.64 1.621333-0.810666 1.578667-0.341334 1.28-0.64 1.664-0.64 1.28-0.469333 1.621333-0.64 1.28-0.64 1.621334-0.512 1.28-0.64 1.621333-0.64 1.578667-0.64 1.28-0.469333 1.621333h-33.066667l0.64-1.578667 0.64-1.450666 0.64-1.450667 0.512-1.621333 0.426667-1.450667 0.853333-1.450667 0.64-1.450666 0.64-1.450667 0.469333-1.450667 0.64-1.621333 0.853334-1.450667 0.597333-1.450666 0.512-1.450667 0.469333-1.450667 0.64-1.450666 0.853334-1.621334 0.597333-1.450666 0.64-1.450667 0.512-1.450667 0.64-1.450666 0.64-1.450667 0.64-1.621333 0.64-1.621334 0.512-1.28 0.64-1.621333 0.810667-1.28 0.64-1.621333 0.469333-1.578667 0.469333-1.28 0.64-1.621333 0.853334-1.28 0.597333-1.621334 0.682667-1.28 0.426666-1.621333 0.682667-1.621333 0.810667-1.28 0.469333-1.621334 0.64-1.28 0.512-1.621333 0.64-1.621333 0.810667-1.28 0.64-1.621334 0.469333-1.28 0.64-1.621333 0.512-1.28 0.810667-1.621333 0.64-1.621334 0.64-1.450666 0.469333-1.450667 0.64-1.450667 0.853333-1.450666 0.597334-1.450667 0.341333-1.621333 0.64-1.450667 0.64-1.450667 0.810667-1.450666 0.64-1.450667 0.469333-1.450667 0.682667-1.621333 0.64-1.578667 0.64-1.28 0.64-1.621333 0.469333-1.28 0.64-1.621333 0.64-1.621334 0.853333-1.28 0.597334-1.621333 0.512-1.28 0.469333-1.621333 0.64-1.28 0.853333-1.621334 0.597334-1.621333 0.512-1.28 0.64-1.621333 0.64-1.28 0.810666-1.621334 0.469334-1.621333 0.469333-1.28 0.682667-1.621333z m93.525333 0.810666h33.066667l0.938666 1.28 0.853334 1.450667 0.938666 1.28 0.810667 1.450667 0.810667 1.28 0.810666 1.450666 0.768 1.28 0.981334 1.493334 0.810666 1.28 0.810667 1.28 0.810667 1.450666 0.810666 1.28 1.109334 1.450667 0.64 1.28 0.853333 1.493333 0.938667 1.28 0.981333 1.28 0.64 1.450667 0.938667 1.28 0.853333 1.450667 0.597333 1.28 1.152 1.493333 0.810667 1.28 0.810667 1.450667 0.810666 1.28 0.768 1.28 0.981334 1.450666 0.810666 1.28 0.810667 1.493334 0.810667 1.28 0.810666 1.450666 0.938667 1.28 0.853333 1.450667 0.768 1.28 0.981334-1.28 0.64-1.621333 0.981333-1.109334 0.938667-1.621333 0.853333-1.109333 0.597333-1.621334 1.152-1.152 0.810667-1.578666 0.64-1.152 0.981333-1.28 0.938667-1.621334 0.853333-1.109333 0.768-1.621333 0.810667-1.152 0.981333-1.578667 0.768-1.152 0.853334-1.621333 0.768-1.109334 0.853333-1.28 0.938667-1.621333 0.810666-1.152 0.810667-1.578667 0.938667-1.152 0.853333-1.621333 0.768-1.109333 0.981333-1.28 0.810667-1.621334 0.938667-1.152 0.853333-1.578666 0.768-1.152 0.853333-1.621334 0.938667-1.109333 0.810667-1.621333 0.810666-1.109334h33.365334v118.997334h-31.317334v-69.973334l-0.768 1.109334-0.981333 1.621333-0.810667 1.109333-0.981333 1.28-0.810667 1.621334-0.938666 1.152-0.853334 1.28-0.938666 1.621333-0.810667 1.109333-0.810667 1.28-1.109333 1.28-0.810667 1.664-0.981333 1.109334-0.810667 1.28-0.768 1.621333-0.981333 1.109333-0.810667 1.28-0.981333 1.621334-0.810667 1.152-0.938666 1.28-0.853334 1.621333-0.768 1.109333-0.981333 1.28-0.810667 1.621334-0.938666 1.152-0.981334 1.28-0.810666 1.28-0.810667 1.621333-0.981333 1.152-0.938667 1.28-0.64 1.621333-1.152 1.109334-0.810667 1.28-0.938666 1.621333-0.853334 1.152h-0.597333l-0.981333-1.450667-0.810667-1.28-0.981333-1.493333-0.810667-1.28-0.938667-1.450667-0.853333-1.28-0.938667-1.450666-0.810666-1.28-0.938667-1.450667-0.853333-1.28-1.109334-1.493333-0.64-1.28-0.981333-1.450667-0.938667-1.28-0.853333-1.450667-0.938667-1.28-0.810666-1.621333-0.938667-1.28-0.853333-1.450667-0.938667-1.28-0.810667-1.493333-0.981333-1.28-0.768-1.450667-0.981333-1.28-0.810667-1.450666-0.981333-1.28-0.810667-1.450667-0.938667-1.28-0.853333-1.493333-0.938667-1.28-0.810666-1.450667-1.109334-1.28-0.64-1.450667-0.981333-1.28v70.144h-30.933333v-117.76z m148.053333 0h93.824v26.88h-62.72v19.072h56.405334v25.301334H648.96v20.48h63.530667v26.922666h-94.506667v-117.717333z m-226.901333 36.437334l-0.64 1.621333-0.512 1.28-0.64 1.621333-0.64 1.578667-0.469333 1.450667-0.64 1.450666-0.682667 1.621334-0.64 1.621333-0.469333 1.28-0.64 1.621333-0.64 1.28-0.512 1.621334-0.64 1.621333-0.64 1.28-0.469334 1.621333-0.64 1.28-0.64 1.621334-0.682666 1.621333-0.426667 1.28-0.682667 1.621333-0.64 1.621334-0.469333 1.28-0.682667 1.621333h27.434667l-0.64-1.621333-0.512-1.450667-0.64-1.621333-0.64-1.450667-0.469333-1.450667-0.64-1.450666-0.64-1.621334-0.512-1.450666-0.64-1.450667-0.64-1.450667-0.469334-1.450666-0.64-1.621334-0.512-1.450666-0.64-1.450667-0.64-1.450667-0.469333-1.450666-0.64-1.578667-0.64-1.621333-0.512-1.28-0.64-1.621334-0.64-1.621333-0.469333-1.450667z m-49.066667 222.848h341.888l-174.506666 57.6z" p-id="1731"></path></svg>