<?xml version="1.0" standalone="no"?><!DOCTYPE svg PUBLIC "-//W3C//DTD SVG 1.1//EN" "http://www.w3.org/Graphics/SVG/1.1/DTD/svg11.dtd"><svg t="1618543242384" class="icon" viewBox="0 0 1024 1024" version="1.1" xmlns="http://www.w3.org/2000/svg" p-id="1882" width="128" height="128" xmlns:xlink="http://www.w3.org/1999/xlink"><defs><style type="text/css"></style></defs><path d="M537.088 132.693333a374.613333 374.613333 0 0 1 145.792 39.210667 374.4 374.4 0 0 1 115.456 89.344 388.778667 388.778667 0 0 1 73.173333 126.421333 369.066667 369.066667 0 0 1 19.797334 149.418667 350.890667 350.890667 0 0 1-13.056 78.848 391.424 391.424 0 0 1-28.757334 72.661333 851.541333 851.541333 0 0 1-62.72 102.912 751.36 751.36 0 0 1-75.178666 90.368 793.984 793.984 0 0 1-182.869334 139.989334l-1.578666 1.109333a8.362667 8.362667 0 0 1-4.650667 0.981333 12.501333 12.501333 0 0 1-6.784-4.138666 11.349333 11.349333 0 0 1-2.645333-7.381334c0-1.237333 0.170667-2.517333 0.512-3.626666a7.936 7.936 0 0 1 1.578666-2.645334c11.818667-16.768 21.589333-34.389333 29.269334-52.693333a231.253333 231.253333 0 0 0 15.701333-57.984 5.034667 5.034667 0 0 0-1.621333-3.626667 4.693333 4.693333 0 0 0-3.626667-1.621333 390.613333 390.613333 0 0 1-33.92 2.645333 210.133333 210.133333 0 0 1-33.962667-1.578666 376.234667 376.234667 0 0 1-261.248-128.554667 387.754667 387.754667 0 0 1-73.173333-126.421333 369.578667 369.578667 0 0 1-19.84-149.418667 350.890667 350.890667 0 0 1 13.056-78.848 366.848 366.848 0 0 1 28.8-71.68c18.730667-36.864 39.722667-71.509333 62.677333-103.936A769.450667 769.450667 0 0 1 312.405333 142.08 802.133333 802.133333 0 0 1 495.274667 2.176l1.621333-1.066667a7.978667 7.978667 0 0 1 4.650667-1.066666 12.586667 12.586667 0 0 1 6.741333 4.181333 10.88 10.88 0 0 1 2.645333 7.424 10.410667 10.410667 0 0 1-0.512 3.584 6.997333 6.997333 0 0 1-1.536 2.602667 275.072 275.072 0 0 0-29.312 52.778666c-7.722667 18.474667-12.8 37.76-15.616 57.941334 0 1.408 0.512 2.688 1.536 3.669333a4.992 4.992 0 0 0 3.626667 1.578667c11.178667-1.408 22.485333-2.261333 33.92-2.602667 11.605333-0.384 22.869333 0.128 34.048 1.493333z m-34.432 527.658667a141.653333 141.653333 0 0 0 107.562667-36.48c30.72-27.264 47.317333-61.354667 50.176-102.4a143.232 143.232 0 0 0-36.522667-108.16 140.501333 140.501333 0 0 0-102.4-49.578667 143.36 143.36 0 0 0-108.117333 36.48 140.757333 140.757333 0 0 0-49.664 102.4 144.256 144.256 0 0 0 36.096 108.16c26.794667 30.933333 61.098667 47.573333 102.869333 49.578667z" fill="#F56C2D" p-id="1883"></path></svg>