<?xml version="1.0" standalone="no"?><!DOCTYPE svg PUBLIC "-//W3C//DTD SVG 1.1//EN" "http://www.w3.org/Graphics/SVG/1.1/DTD/svg11.dtd"><svg t="1618543373437" class="icon" viewBox="0 0 1024 1024" version="1.1" xmlns="http://www.w3.org/2000/svg" p-id="4869" xmlns:xlink="http://www.w3.org/1999/xlink" width="128" height="128"><defs><style type="text/css"></style></defs><path d="M1005.264195 511.536005C994.170977-12.959865 296.663576-208.62716 27.951709 283.058385c12.031875 8.789242 28.202373 20.351788 40.234247 28.671701a501.242779 501.242779 0 0 0-41.642232 130.89997 507.130717 507.130717 0 0 0-7.850585 88.361746c0 271.9545 221.096364 493.050864 493.520192 493.050864s493.050864-220.627035 493.050864-493.050864v-19.413131zM140.377204 599.385756c-6.485266 53.204779-2.303976 69.844606-2.303976 76.329872l-12.031874 4.18129c-4.607952-8.789242-15.743836-39.764919-20.821117-81.407152-12.970532-158.633014 95.273674-301.564859 260.391955-328.401913 151.251758-22.186436 296.01825 71.679253 329.767231 203.048552l-12.031875 4.18129c-3.711961-3.711961-9.727899-14.335851-32.852991-37.460944-182.696764-182.696764-469.456443-98.985636-510.160019 159.571672z m469.456444 88.831075a134.185269 134.185269 0 0 1-110.548182 57.812731 134.441266 134.441266 0 0 1-134.611931-134.611931 134.782596 134.782596 0 0 1 124.884032-134.142603c43.47688-1.834648 84.180456 21.759773 103.124259 59.647379a110.078853 110.078853 0 0 1-19.413131 125.822689c12.501203 8.789242 24.533078 17.109155 36.522286 25.429069z m280.743742 5.077281c-71.209925 161.406319-217.853731 246.056104-374.182769 243.752127-300.156873-14.805179-387.579963-361.212237-186.878053-486.09627l8.789241 8.789242c-3.242633 4.607952-15.274508 13.866522-33.748981 50.431475-21.759773 44.415537-28.671701 88.788408-25.898397 116.564119 15.743836 241.91748 354.769638 291.410298 471.29109 51.796794C898.427975 350.599015 504.362746 17.119822 154.670389 271.965167l-7.850585-7.850585c92.031041-144.297164 271.9545-208.59516 443.558046-165.587608 262.269268 66.132644 403.323799 339.49513 300.156874 594.809804z" p-id="4870"></path></svg>