<?xml version="1.0" standalone="no"?><!DOCTYPE svg PUBLIC "-//W3C//DTD SVG 1.1//EN" "http://www.w3.org/Graphics/SVG/1.1/DTD/svg11.dtd"><svg t="1618543490322" class="icon" viewBox="0 0 1024 1024" version="1.1" xmlns="http://www.w3.org/2000/svg" p-id="2040" xmlns:xlink="http://www.w3.org/1999/xlink" width="128" height="128"><defs><style type="text/css"></style></defs><path d="M739.8 636.4c88.6 108.6 129.4 197.6 108.8 237.4-15.8 30.2-113.4 89.2-185.2 111.8-59.2 18.6-136.8 26.6-200.8 20.4-76.4-7.4-153.8-34.8-220.2-78C186.6 891.6 174 876.6 174 846.8c0-59.8 65.8-164.6 178.4-284.2 64-67.8 153-147.4 162.8-145.2 18.8 4.2 168.6 150.2 224.6 219zM377.2 287.6c-59.4-53.8-116.2-107.8-172.8-126.8-30.4-10.2-32.6-9.6-57.4 16.2-58.4 60.8-107 159.4-120.6 244.8-10.8 68.4-12.2 87.6-8.4 121 11.2 101 34.6 170.8 81 241.8 19 29.2 24.2 34.6 18.6 19.8-8.4-22-0.6-75 19-128 28.6-78 107.8-225.8 240.6-388.8z m623.2 127C966.6 254.6 865.4 154 851.2 154c-14.6 0-48.4 13-72 27.8-46.6 29-82 62.8-128.6 105.6C735.4 394 855 566.2 896.4 692c13.6 41.4 19.4 82.2 14.8 104.6-3.4 17-3.4 17 2.8 9.2 12.2-15.4 39.8-62.6 50.8-87 14.8-32.4 30-80.4 37.2-117.4 8.6-45 7.8-141.6-1.6-186.8zM282.6 86C378 81 502 155 511.2 156.8c1.4 0.2 20.8-8.4 43.2-19.4 127.8-62.2 188-51.6 214.8-50.4-127.8-78.6-305.4-100-467.8-23.4-46.8 22.2-48 23.8-18.8 22.4z" fill="#107B10" p-id="2041"></path></svg>